<svg width="54" height="36" viewBox="0 0 54 36" fill="none" xmlns="http://www.w3.org/2000/svg">
<path d="M45.9188 32.7052C43.221 34.4212 40.019 35.4152 36.5848 35.4152C33.3007 35.4152 30.229 34.5062 27.6074 32.926C28.7444 33.2128 30.0021 33.3562 31.3806 33.3562C32.9719 33.3562 34.4185 33.1392 35.7205 32.7052C37.0225 32.3074 38.1979 31.6926 39.2467 30.8607C39.6006 30.5679 39.9442 30.2503 40.2775 29.908V32.7052H45.9188Z" fill="#5F72FF"/>
<path fill-rule="evenodd" clip-rule="evenodd" d="M47.8723 31.2625V13.1755C47.8723 11.0417 47.3298 9.17918 46.2448 7.58787C45.196 5.9604 43.7132 4.69459 41.7964 3.79043C39.8796 2.88628 37.6735 2.43421 35.178 2.43421C33.0804 2.43421 31.1455 2.7597 29.3734 3.41069C27.6012 4.06168 26.0823 4.98392 24.8165 6.1774C23.5506 7.37088 22.6284 8.79944 22.0498 10.4631L28.5596 13.5553C29.066 12.2533 29.8616 11.2045 30.9466 10.4088C32.0678 9.61317 33.3516 9.21534 34.7983 9.21534C36.3173 9.21534 37.5107 9.59509 38.3787 10.3546C39.2829 11.1141 39.735 12.0544 39.735 13.1755V13.9669L31.5433 15.2912C29.1926 15.6529 27.2215 16.2677 25.6302 17.1357C24.0751 18.0037 22.9177 19.0887 22.1583 20.3907C21.3988 21.6565 21.019 23.1212 21.019 24.7848C21.019 26.557 21.4349 28.094 22.2668 29.396C23.0986 30.6618 24.2921 31.6383 25.8472 32.3255C26.1664 32.4665 26.4979 32.5931 26.8415 32.7052H19.2584V29.908C18.9251 30.2503 18.5816 30.5679 18.2277 30.8607C17.1789 31.6926 16.0035 32.3074 14.7015 32.7052C13.3995 33.1392 11.9529 33.3562 10.3616 33.3562C8.22778 33.3562 6.38331 33.0126 4.82817 32.3255C3.27303 31.6383 2.07955 30.6618 1.24773 29.396C0.41591 28.094 0 26.557 0 24.7848C0 23.1212 0.379744 21.6565 1.13923 20.3907C1.89872 19.0887 3.05603 18.0037 4.61117 17.1357C6.20248 16.2677 8.17353 15.6529 10.5243 15.2912L18.7159 13.9669V13.1755C18.7159 12.0544 18.2639 11.1141 17.3597 10.3546C16.4917 9.59509 15.2982 9.21534 13.7793 9.21534C12.3326 9.21534 11.0487 9.61317 9.92758 10.4088C8.8426 11.2045 8.04695 12.2533 7.54062 13.5553L1.03073 10.4631C1.60939 8.79944 2.53162 7.37088 3.79744 6.1774C5.06325 4.98392 6.58222 4.06168 8.35436 3.41069C10.1265 2.7597 12.0614 2.43421 14.159 2.43421C16.6545 2.43421 18.8606 2.88628 20.7774 3.79043C22.0203 4.3767 23.0807 5.11503 23.9587 6.00541C27.1316 2.66647 31.6151 0.584808 36.5848 0.584808C46.203 0.584808 54 8.38185 54 18C54 23.3118 51.6219 28.0681 47.8723 31.2625ZM11.989 21.1501L18.7159 19.9489V20.8789C18.7159 22.0724 18.4266 23.1754 17.8479 24.1881C17.3055 25.1646 16.5279 25.9421 15.5152 26.5208C14.5026 27.0995 13.3272 27.3888 11.989 27.3888C10.9764 27.3888 10.1265 27.1356 9.43934 26.6293C8.75219 26.123 8.40861 25.4177 8.40861 24.5136C8.40861 23.5371 8.71602 22.7957 9.33084 22.2894C9.94567 21.7469 10.8317 21.3671 11.989 21.1501Z" fill="#5F72FF"/>
<path d="M39.735 19.9489L33.0081 21.1501C31.8508 21.3671 30.9647 21.7469 30.3499 22.2894C29.735 22.7957 29.4276 23.5371 29.4276 24.5136C29.4276 25.4177 29.7712 26.123 30.4584 26.6293C31.1455 27.1356 31.9954 27.3888 33.0081 27.3888C34.3462 27.3888 35.5216 27.0995 36.5343 26.5208C37.5469 25.9421 38.3245 25.1646 38.867 24.1881C39.4456 23.1754 39.735 22.0724 39.735 20.8789V19.9489Z" fill="#5F72FF"/>
</svg>
