<svg width="22" height="27" viewBox="0 0 22 27" fill="none" xmlns="http://www.w3.org/2000/svg">
<path d="M18.1281 14.1182C18.0991 10.8952 20.7671 9.32718 20.8891 9.25418C19.3781 7.05118 17.0361 6.75018 16.2131 6.72618C14.2461 6.51918 12.3381 7.90318 11.3361 7.90318C10.3141 7.90318 8.77109 6.74618 7.10809 6.78018C4.96809 6.81318 2.96609 8.05218 1.86809 9.97618C-0.397912 13.8992 1.29209 19.6642 3.46309 22.8352C4.54909 24.3882 5.81809 26.1222 7.47909 26.0612C9.10409 25.9942 9.71109 25.0252 11.6721 25.0252C13.6151 25.0252 14.1851 26.0612 15.8791 26.0222C17.6231 25.9942 18.7211 24.4622 19.7691 22.8952C21.0241 21.1152 21.5281 19.3622 21.5481 19.2722C21.5071 19.2582 18.1611 17.9812 18.1281 14.1182Z" fill="#5F72FF"/>
<path d="M14.928 4.64027C15.802 3.54727 16.4 2.06027 16.234 0.55127C14.969 0.60727 13.387 1.42627 12.476 2.49527C11.67 3.43727 10.95 4.98127 11.136 6.43327C12.557 6.53927 14.016 5.71627 14.928 4.64027Z" fill="#5F72FF"/>
</svg>
