<svg width="25" height="27" viewBox="0 0 25 27" fill="none" xmlns="http://www.w3.org/2000/svg">
<path fill-rule="evenodd" clip-rule="evenodd" d="M1.50046 0.808679C1.49734 0.81156 1.49423 0.81446 1.49113 0.817377L1.50914 0.799365C1.74478 0.587596 2.04656 0.474365 2.39314 0.474365C2.73114 0.474365 3.11214 0.582365 3.51414 0.811365L18.1221 9.11137L23.0151 11.8914C24.4121 12.6854 24.4121 13.9854 23.0151 14.7804L18.1221 17.5604L18.0554 17.5973L3.51414 25.8594C2.90699 26.2044 2.34803 26.2744 1.91014 26.1123C1.76193 26.0575 1.62755 25.976 1.50989 25.8696L1.49063 25.8518C1.47203 25.8343 1.45386 25.8162 1.43614 25.7974C1.14514 25.4904 0.973145 25.0134 0.973145 24.3934V2.27737C0.973145 1.65837 1.14514 1.18037 1.43614 0.872365C1.50672 0.802933 1.50359 0.805797 1.50046 0.808679C1.47842 0.829026 1.45697 0.850258 1.43614 0.872365L13.8991 13.3354L1.43614 25.7974L18.1221 9.11137L13.8991 13.3354L1.50046 0.808679Z" fill="#5F72FF"/>
</svg>
