<svg width="146" height="41" viewBox="0 0 146 41" fill="none" xmlns="http://www.w3.org/2000/svg">
<rect y="0.334229" width="146" height="40" rx="4" fill="#D8D8D8"/>
<mask id="mask0_252_2415" style="mask-type:luminance" maskUnits="userSpaceOnUse" x="0" y="0" width="146" height="41">
<rect y="0.334229" width="146" height="40" rx="4" fill="white"/>
</mask>
<g mask="url(#mask0_252_2415)">
<rect y="0.334229" width="146" height="40" fill="white"/>
</g>
<g clip-path="url(#clip0_252_2415)">
<path fill-rule="evenodd" clip-rule="evenodd" d="M94.857 30.8702C95.646 30.1592 96.039 29.2382 96.039 28.1062C96.039 27.1862 95.77 26.4152 95.231 25.7992C94.69 25.1812 93.849 24.6422 92.704 24.1812C91.768 23.8122 91.123 23.4702 90.768 23.1542C90.36 22.8122 90.157 22.3772 90.157 21.8512C90.157 21.3762 90.335 20.9752 90.69 20.6462C91.11 20.2782 91.696 20.0932 92.446 20.0932C93.395 20.0932 94.243 20.2972 94.993 20.7052L95.526 18.9672C94.723 18.5462 93.717 18.3352 92.506 18.3352C91.148 18.3352 90.062 18.6842 89.248 19.3832C88.431 20.0812 88.023 20.9782 88.023 22.0722C88.023 23.7462 89.187 25.0192 91.517 25.8882C92.373 26.2052 92.986 26.5482 93.353 26.9172C93.722 27.2862 93.906 27.7412 93.906 28.2812C93.906 28.8872 93.683 29.3732 93.236 29.7352C92.787 30.0972 92.162 30.2792 91.359 30.2792C90.24 30.2792 89.213 29.9952 88.277 29.4292L87.783 31.2062C88.652 31.7592 89.8 32.0352 91.232 32.0352C92.783 32.0352 93.99 31.6472 94.857 30.8702ZM61.645 31.8382H59.374L58.13 27.9292H53.806L52.621 31.8382H50.41L54.694 18.5302H57.34L61.645 31.8382ZM57.755 26.2892L56.63 22.8142C56.511 22.4592 56.288 21.6232 55.959 20.3072H55.919C55.788 20.8732 55.577 21.7092 55.287 22.8142L54.182 26.2892H57.755ZM71.339 30.7912C72.221 29.8442 72.662 28.5542 72.662 26.9222C72.662 25.4612 72.284 24.2832 71.526 23.3872C70.77 22.4922 69.825 22.0452 68.693 22.0452C67.245 22.0452 66.166 22.6172 65.455 23.7632H65.415L65.296 22.2422H63.421C63.473 23.3222 63.5 24.3752 63.5 25.4012V35.7482H65.632V30.6932H65.672C66.225 31.6012 67.133 32.0552 68.397 32.0552C69.568 32.0552 70.549 31.6342 71.339 30.7912ZM70.49 27.0002C70.49 26.0662 70.28 25.2962 69.858 24.6902C69.397 24.0582 68.778 23.7422 68.002 23.7422C67.476 23.7422 66.998 23.9182 66.571 24.2652C66.143 24.6152 65.863 25.0722 65.732 25.6382C65.666 25.9022 65.633 26.1182 65.633 26.2882V27.8882C65.633 28.5862 65.847 29.1752 66.275 29.6562C66.703 30.1372 67.259 30.3772 67.943 30.3772C68.746 30.3772 69.371 30.0672 69.818 29.4492C70.266 28.8302 70.49 28.0142 70.49 27.0002ZM82.375 30.7912C83.258 29.8442 83.699 28.5542 83.699 26.9222C83.699 25.4612 83.32 24.2832 82.565 23.3872C81.807 22.4922 80.862 22.0452 79.731 22.0452C78.282 22.0452 77.203 22.6172 76.493 23.7632H76.453L76.334 22.2422H74.459C74.511 23.3222 74.538 24.3752 74.538 25.4012V35.7482H76.67V30.6932H76.71C77.262 31.6012 78.17 32.0552 79.434 32.0552C80.605 32.0552 81.586 31.6342 82.375 30.7912ZM81.527 27.0002C81.527 26.0662 81.316 25.2962 80.894 24.6902C80.433 24.0582 79.816 23.7422 79.039 23.7422C78.512 23.7422 78.035 23.9182 77.607 24.2652C77.179 24.6152 76.9 25.0722 76.769 25.6382C76.704 25.9022 76.67 26.1182 76.67 26.2882V27.8882C76.67 28.5862 76.884 29.1752 77.31 29.6562C77.738 30.1362 78.294 30.3772 78.98 30.3772C79.783 30.3772 80.408 30.0672 80.855 29.4492C81.303 28.8302 81.527 28.0142 81.527 27.0002ZM103.088 23.8422H100.738V28.5012C100.738 29.6862 101.152 30.2782 101.982 30.2782C102.363 30.2782 102.679 30.2452 102.929 30.1792L102.988 31.7982C102.568 31.9552 102.015 32.0342 101.33 32.0342C100.488 32.0342 99.83 31.7772 99.355 31.2642C98.882 30.7502 98.644 29.8882 98.644 28.6772V23.8402H97.244V22.2402H98.644V20.4832L100.738 19.8512V22.2402H103.088V23.8422ZM112.427 30.5942C113.269 29.6472 113.691 28.4362 113.691 26.9612C113.691 25.5262 113.283 24.3552 112.465 23.4482C111.61 22.5132 110.477 22.0462 109.069 22.0462C107.608 22.0462 106.446 22.5202 105.585 23.4682C104.722 24.4152 104.292 25.6332 104.292 27.1202C104.292 28.5412 104.71 29.7202 105.546 30.6542C106.382 31.5882 107.503 32.0552 108.911 32.0552C110.372 32.0552 111.544 31.5692 112.427 30.5942ZM111.479 27.0302C111.479 26.1452 111.29 25.3862 110.907 24.7532C110.46 23.9872 109.821 23.6052 108.993 23.6052C108.136 23.6052 107.485 23.9882 107.038 24.7532C106.655 25.3872 106.466 26.1582 106.466 27.0702C106.466 27.9552 106.655 28.7142 107.038 29.3462C107.499 30.1122 108.143 30.4942 108.974 30.4942C109.788 30.4942 110.427 30.1042 110.888 29.3262C111.281 28.6812 111.479 27.9142 111.479 27.0302ZM119.949 24.0582C120.185 24.0582 120.41 24.0782 120.621 24.1172V22.0842C120.463 22.0592 120.285 22.0452 120.088 22.0452C119.535 22.0452 119.022 22.2162 118.547 22.5592C118.061 22.9402 117.706 23.4482 117.481 24.0792H117.422L117.344 22.2432H115.487C115.54 23.1512 115.567 24.1582 115.567 25.2642L115.547 31.8382H117.678V26.8032C117.678 26.0402 117.856 25.4082 118.211 24.9082C118.619 24.3412 119.199 24.0582 119.949 24.0582ZM130.156 26.5862C130.156 26.9682 130.131 27.2902 130.078 27.5532H123.682C123.707 28.5012 124.016 29.2262 124.61 29.7262C125.149 30.1732 125.846 30.3972 126.702 30.3972C127.649 30.3972 128.513 30.2462 129.29 29.9432L129.624 31.4232C128.716 31.8192 127.644 32.0162 126.407 32.0162C124.919 32.0162 123.751 31.5782 122.901 30.7032C122.053 29.8282 121.628 28.6532 121.628 27.1792C121.628 25.7322 122.023 24.5272 122.814 23.5662C123.642 22.5402 124.761 22.0272 126.169 22.0272C127.552 22.0272 128.599 22.5402 129.31 23.5662C129.873 24.3812 130.156 25.3892 130.156 26.5862ZM127.709 24.3942C127.998 24.8552 128.137 25.4012 128.123 26.0332V26.0322H123.682C123.747 25.3882 123.958 24.8352 124.313 24.3742C124.746 23.7942 125.313 23.5052 126.01 23.5052C126.773 23.5052 127.34 23.8012 127.709 24.3942Z" fill="#5F72FF"/>
<path fill-rule="evenodd" clip-rule="evenodd" d="M79.088 13.7673H78.041V6.89026H79.088V13.7673ZM55.992 13.0013C56.697 12.4063 57.05 11.5203 57.05 10.3433C57.05 9.29526 56.723 8.49026 56.071 7.92726C55.489 7.42926 54.626 7.18026 53.481 7.18026C52.833 7.18026 52.233 7.22626 51.676 7.31626V13.7473C52.103 13.7993 52.613 13.8253 53.209 13.8253C54.411 13.8253 55.339 13.5503 55.992 13.0013ZM55.339 8.61626C55.743 9.02426 55.945 9.60926 55.945 10.3723C55.945 11.2263 55.725 11.8763 55.289 12.3223C54.853 12.7683 54.234 12.9913 53.432 12.9913C53.089 12.9913 52.853 12.9823 52.724 12.9623V8.07326C52.957 8.02726 53.238 8.00526 53.568 8.00526C54.345 8.00526 54.935 8.20926 55.339 8.61626ZM62.909 11.3713C62.909 12.0963 62.702 12.6903 62.288 13.1563C61.854 13.6353 61.279 13.8743 60.561 13.8743C59.869 13.8743 59.318 13.6453 58.907 13.1853C58.497 12.7263 58.292 12.1473 58.292 11.4493C58.292 10.7193 58.503 10.1203 58.927 9.65526C59.351 9.19026 59.921 8.95726 60.639 8.95726C61.331 8.95726 61.887 9.18626 62.308 9.64526C62.708 10.0913 62.909 10.6673 62.909 11.3713ZM61.541 10.2863C61.728 10.5973 61.822 10.9703 61.822 11.4053C61.822 11.8403 61.725 12.2163 61.531 12.5333C61.305 12.9163 60.991 13.1073 60.591 13.1073C60.183 13.1073 59.867 12.9193 59.64 12.5433C59.453 12.2323 59.359 11.8593 59.359 11.4243C59.359 10.9763 59.452 10.5973 59.64 10.2863C59.86 9.91026 60.18 9.72226 60.601 9.72226C61.008 9.72226 61.321 9.91026 61.541 10.2863ZM70.765 9.05326L70.7647 9.05426H69.736L69.164 11.2563C69.022 11.8063 68.915 12.3233 68.844 12.8083H68.815C68.718 12.3103 68.592 11.7933 68.437 11.2563L67.796 9.05426H66.942L66.273 11.3043C66.091 11.9113 65.962 12.4133 65.884 12.8073H65.865C65.78 12.3293 65.674 11.8243 65.545 11.2943L65.012 9.05326H63.935L65.322 13.7673H66.293L66.942 11.7203C67.104 11.2223 67.23 10.7153 67.321 10.1973H67.34C67.438 10.7013 67.564 11.2093 67.719 11.7203L68.33 13.7673H69.29L70.7647 9.05426H70.765V9.05326ZM75.15 13.7673H76.198V10.9433C76.198 10.2513 76.017 9.73026 75.655 9.38126C75.364 9.09626 74.998 8.95426 74.558 8.95426C74.21 8.95426 73.892 9.04326 73.608 9.21926C73.369 9.37026 73.187 9.55926 73.065 9.78826H73.036L72.987 9.05126H72.066C72.091 9.53726 72.104 9.98626 72.104 10.4003V13.7663H73.152V10.9703C73.152 10.6613 73.25 10.3913 73.443 10.1623C73.638 9.93326 73.889 9.81926 74.2 9.81926C74.834 9.81926 75.15 10.2353 75.15 11.0673V13.7673ZM84.637 13.1563C85.051 12.6903 85.258 12.0963 85.258 11.3713C85.258 10.6673 85.057 10.0913 84.657 9.64526C84.235 9.18626 83.68 8.95726 82.987 8.95726C82.27 8.95726 81.7 9.19026 81.276 9.65526C80.852 10.1203 80.641 10.7193 80.641 11.4493C80.641 12.1473 80.846 12.7263 81.256 13.1853C81.666 13.6453 82.217 13.8743 82.91 13.8743C83.627 13.8743 84.203 13.6353 84.637 13.1563ZM84.17 11.4053C84.17 10.9703 84.076 10.5973 83.889 10.2863C83.67 9.91026 83.356 9.72226 82.95 9.72226C82.528 9.72226 82.208 9.91026 81.989 10.2863C81.801 10.5973 81.708 10.9763 81.708 11.4243C81.708 11.8593 81.802 12.2323 81.989 12.5433C82.216 12.9193 82.532 13.1073 82.94 13.1073C83.34 13.1073 83.653 12.9163 83.879 12.5333C84.074 12.2163 84.17 11.8403 84.17 11.4053ZM89.389 13.7673H90.33C90.285 13.4893 90.262 13.1143 90.262 12.6433V10.9073C90.262 9.60726 89.644 8.95726 88.412 8.95726C87.774 8.95726 87.233 9.09326 86.795 9.36426L87.008 10.0523C87.362 9.82026 87.772 9.70326 88.237 9.70326C88.89 9.70326 89.216 10.0133 89.216 10.6343V10.7223C88.343 10.7153 87.665 10.8643 87.183 11.1683C86.7 11.4723 86.46 11.9113 86.46 12.4873C86.46 12.8683 86.583 13.1893 86.829 13.4473C87.1 13.7313 87.46 13.8743 87.905 13.8743C88.501 13.8743 88.96 13.6573 89.282 13.2243H89.311L89.389 13.7673ZM89.242 12.1473V11.4203C88.086 11.4003 87.508 11.7173 87.508 12.3703C87.508 12.6163 87.574 12.8003 87.709 12.9233C87.844 13.0463 88.016 13.1073 88.221 13.1073C88.451 13.1073 88.666 13.0343 88.862 12.8893C89.059 12.7433 89.18 12.5583 89.225 12.3313C89.236 12.2803 89.242 12.2183 89.242 12.1473ZM95.355 13.7673H96.285C96.26 13.3793 96.248 12.9563 96.248 12.4973V6.89026H95.199V9.59626H95.179C94.927 9.16926 94.484 8.95626 93.851 8.95626C93.275 8.95626 92.791 9.17626 92.396 9.61626C91.988 10.0883 91.785 10.7063 91.785 11.4693C91.785 12.1803 91.972 12.7593 92.347 13.2053C92.722 13.6513 93.195 13.8743 93.763 13.8743C94.474 13.8743 94.98 13.5863 95.277 13.0103H95.306L95.355 13.7673ZM95.199 11.7793V10.9933C95.199 10.8573 95.189 10.7473 95.17 10.6633C95.111 10.4113 94.984 10.1993 94.791 10.0283C94.596 9.85726 94.361 9.77126 94.09 9.77126C93.699 9.77126 93.393 9.92626 93.168 10.2373C92.945 10.5483 92.832 10.9453 92.832 11.4303C92.832 11.8963 92.939 12.2743 93.154 12.5653C93.381 12.8753 93.687 13.0303 94.07 13.0303C94.414 13.0303 94.689 12.9013 94.898 12.6423C95.1 12.4033 95.199 12.1153 95.199 11.7793ZM104.627 13.1563C105.041 12.6903 105.248 12.0963 105.248 11.3713C105.248 10.6673 105.047 10.0913 104.647 9.64526C104.227 9.18626 103.67 8.95726 102.979 8.95726C102.26 8.95726 101.69 9.19026 101.266 9.65526C100.842 10.1203 100.631 10.7193 100.631 11.4493C100.631 12.1473 100.836 12.7263 101.246 13.1853C101.658 13.6453 102.209 13.8743 102.9 13.8743C103.619 13.8743 104.193 13.6353 104.627 13.1563ZM104.162 11.4053C104.162 10.9703 104.068 10.5973 103.881 10.2863C103.66 9.91026 103.348 9.72226 102.94 9.72226C102.52 9.72226 102.2 9.91026 101.979 10.2863C101.791 10.5973 101.698 10.9763 101.698 11.4243C101.698 11.8593 101.792 12.2323 101.979 12.5433C102.206 12.9193 102.522 13.1073 102.93 13.1073C103.33 13.1073 103.645 12.9163 103.871 12.5333C104.064 12.2163 104.162 11.8403 104.162 11.4053ZM109.836 13.7673H110.883V10.9433C110.883 10.2513 110.703 9.73026 110.34 9.38126C110.049 9.09626 109.683 8.95426 109.244 8.95426C108.895 8.95426 108.578 9.04326 108.293 9.21926C108.055 9.37026 107.873 9.55926 107.75 9.78826H107.721L107.672 9.05126H106.752C106.777 9.53726 106.789 9.98626 106.789 10.4003V13.7663H107.838V10.9703C107.838 10.6613 107.935 10.3913 108.129 10.1623C108.323 9.93326 108.574 9.81926 108.885 9.81926C109.52 9.81926 109.836 10.2353 109.836 11.0673V13.7673ZM117.935 9.83826H116.782V12.1283C116.782 12.7103 116.987 13.0013 117.393 13.0013C117.581 13.0013 117.737 12.9853 117.86 12.9523L117.887 13.7473C117.68 13.8253 117.408 13.8643 117.073 13.8643C116.659 13.8643 116.337 13.7383 116.104 13.4863C115.87 13.2343 115.754 12.8103 115.754 12.2153V9.83826H115.065V9.05326H115.754V8.18926L116.781 7.87926V9.05226H117.935V9.83826ZM122.435 13.7673H123.484V10.9643C123.484 10.2663 123.306 9.73826 122.951 9.38326C122.666 9.09826 122.307 8.95626 121.873 8.95626C121.26 8.95626 120.787 9.21426 120.457 9.73126H120.437V6.89026H119.39V13.7663H120.437V10.9313C120.437 10.7833 120.455 10.6573 120.486 10.5543C120.668 10.0643 121 9.81926 121.486 9.81926C122.119 9.81926 122.435 10.2423 122.435 11.0873V13.7673ZM129.207 11.1873C129.207 11.3753 129.193 11.5333 129.168 11.6623H126.025C126.039 12.1283 126.189 12.4833 126.48 12.7293C126.746 12.9493 127.089 13.0593 127.509 13.0593C127.974 13.0593 128.398 12.9853 128.78 12.8363L128.944 13.5643C128.497 13.7583 127.971 13.8553 127.362 13.8553C126.632 13.8553 126.057 13.6403 125.641 13.2103C125.223 12.7803 125.016 12.2033 125.016 11.4793C125.016 10.7683 125.209 10.1763 125.598 9.70426C126.004 9.20026 126.553 8.94826 127.246 8.94826C127.924 8.94826 128.439 9.20026 128.787 9.70426C129.068 10.1043 129.207 10.5993 129.207 11.1873ZM128.004 10.1113C128.146 10.3373 128.215 10.6053 128.207 10.9163H126.025C126.059 10.5993 126.162 10.3283 126.336 10.1013C126.549 9.81626 126.828 9.67426 127.17 9.67426C127.545 9.67426 127.822 9.82026 128.004 10.1113Z" fill="#5F72FF"/>
<path d="M38.128 20.1183C38.099 16.8953 40.767 15.3273 40.889 15.2543C39.378 13.0513 37.036 12.7503 36.213 12.7263C34.246 12.5193 32.338 13.9033 31.336 13.9033C30.314 13.9033 28.771 12.7463 27.108 12.7803C24.968 12.8133 22.966 14.0523 21.868 15.9763C19.602 19.8993 21.292 25.6643 23.463 28.8353C24.549 30.3883 25.818 32.1223 27.479 32.0613C29.104 31.9943 29.711 31.0253 31.672 31.0253C33.615 31.0253 34.185 32.0613 35.879 32.0223C37.623 31.9943 38.721 30.4623 39.769 28.8953C41.024 27.1153 41.528 25.3623 41.548 25.2723C41.507 25.2583 38.161 23.9813 38.128 20.1183Z" fill="#5F72FF"/>
<path d="M34.9279 10.6403C35.8019 9.54727 36.3999 8.06027 36.2339 6.55127C34.9689 6.60727 33.3869 7.42627 32.4759 8.49527C31.6699 9.43727 30.9499 10.9813 31.1359 12.4333C32.5569 12.5393 34.0159 11.7163 34.9279 10.6403Z" fill="#5F72FF"/>
</g>
<defs>
<clipPath id="clip0_252_2415">
<rect width="111" height="30" fill="white" transform="translate(20 6.33423)"/>
</clipPath>
</defs>
</svg>
