<svg width="99" height="64" viewBox="0 0 99 64" fill="none" xmlns="http://www.w3.org/2000/svg">
<path d="M83.9294 58.1655C79.0198 61.2729 73.1926 63.0729 66.943 63.0729C60.9665 63.0729 55.3764 61.4268 50.6056 58.5654C52.6747 59.0847 54.9635 59.3444 57.4721 59.3444C60.3681 59.3444 63.0007 58.9514 65.3701 58.1655C67.7395 57.4451 69.8786 56.3318 71.7873 54.8255C72.4313 54.2951 73.0565 53.7201 73.663 53.1003V58.1655H83.9294Z" fill="white"/>
<path fill-rule="evenodd" clip-rule="evenodd" d="M87.4845 55.5529V22.8C87.4845 18.936 86.4973 15.5632 84.5228 12.6816C82.6141 9.73444 79.9156 7.44223 76.4273 5.80494C72.9391 4.16765 68.9242 3.34901 64.3829 3.34901C60.5655 3.34901 57.0443 3.93843 53.8193 5.11728C50.5943 6.29613 47.83 7.96617 45.5264 10.1274C43.2228 12.2886 41.5445 14.8755 40.4914 17.8882L52.3384 23.4877C53.2599 21.13 54.7078 19.2307 56.6823 17.7899C58.7227 16.3491 61.0591 15.6287 63.6918 15.6287C66.4561 15.6287 68.6281 16.3164 70.2077 17.6917C71.8531 19.067 72.6758 20.7698 72.6758 22.8V24.233L57.7683 26.6313C53.4902 27.2862 49.9032 28.3996 47.0073 29.9714C44.1772 31.5432 42.071 33.5079 40.6889 35.8656C39.3067 38.1578 38.6157 40.8102 38.6157 43.8229C38.6157 47.0319 39.3726 49.8153 40.8863 52.173C42.4001 54.4653 44.5721 56.2335 47.4022 57.4779C47.9832 57.7333 48.5863 57.9625 49.2117 58.1655H35.4116V53.1003C34.8051 53.7201 34.1799 54.2951 33.5359 54.8255C31.6272 56.3318 29.4881 57.4451 27.1187 58.1655C24.7493 58.9514 22.1167 59.3444 19.2207 59.3444C15.3376 59.3444 11.9809 58.7222 9.15079 57.4779C6.32067 56.2335 4.14872 54.4653 2.63493 52.173C1.12115 49.8153 0.364258 47.0319 0.364258 43.8229C0.364258 40.8102 1.05533 38.1578 2.43748 35.8656C3.81963 33.5079 5.92577 31.5432 8.75589 29.9714C11.6518 28.3996 15.2388 27.2862 19.5169 26.6313L34.4244 24.233V22.8C34.4244 20.7698 33.6017 19.067 31.9563 17.6917C30.3767 16.3164 28.2047 15.6287 25.4404 15.6287C22.8077 15.6287 20.4713 16.3491 18.4309 17.7899C16.4564 19.2307 15.0085 21.13 14.087 23.4877L2.24003 17.8882C3.2931 14.8755 4.97143 12.2886 7.27501 10.1274C9.57859 7.96617 12.3429 6.29613 15.5679 5.11728C18.7929 3.93843 22.3141 3.34901 26.1315 3.34901C30.6728 3.34901 34.6877 4.16765 38.1759 5.80494C40.4378 6.86659 42.3676 8.20359 43.9653 9.81595C49.7396 3.7696 57.8989 0 66.943 0C84.4466 0 98.636 14.1194 98.636 31.5365C98.636 41.1554 94.3082 49.7685 87.4845 55.5529ZM22.1825 37.2409L34.4244 35.0657V36.7498C34.4244 38.911 33.8979 40.9085 32.8448 42.7422C31.8575 44.5105 30.4425 45.9186 28.5996 46.9665C26.7568 48.0143 24.6177 48.5383 22.1825 48.5383C20.3396 48.5383 18.7929 48.0798 17.5424 47.1629C16.2919 46.246 15.6666 44.969 15.6666 43.3317C15.6666 41.5634 16.2261 40.2208 17.345 39.3039C18.4638 38.3216 20.0764 37.6339 22.1825 37.2409Z" fill="white"/>
<path d="M72.6758 35.0657L60.4339 37.2409C58.3278 37.6339 56.7152 38.3216 55.5964 39.3039C54.4775 40.2208 53.918 41.5634 53.918 43.3317C53.918 44.969 54.5433 46.246 55.7938 47.1629C57.0443 48.0798 58.591 48.5383 60.4339 48.5383C62.8691 48.5383 65.0081 48.0143 66.851 46.9665C68.6939 45.9186 70.1089 44.5105 71.0962 42.7422C72.1493 40.9085 72.6758 38.911 72.6758 36.7498V35.0657Z" fill="white"/>
</svg>
