<svg width="146" height="41" viewBox="0 0 146 41" fill="none" xmlns="http://www.w3.org/2000/svg">
<rect y="0.334229" width="146" height="40" rx="4" fill="#D8D8D8"/>
<mask id="mask0_252_2480" style="mask-type:luminance" maskUnits="userSpaceOnUse" x="0" y="0" width="146" height="41">
<rect y="0.334229" width="146" height="40" rx="4" fill="white"/>
</mask>
<g mask="url(#mask0_252_2480)">
<rect y="0.334229" width="146" height="40" fill="white"/>
</g>
<path fill-rule="evenodd" clip-rule="evenodd" d="M112.936 30.3345H114.801V17.8335H112.936V30.3345ZM129.743 22.3365L127.604 27.7565H127.54L125.32 22.3365H123.31L126.64 29.9115L124.741 34.1255H126.687L131.818 22.3365H129.743ZM119.16 28.9145C118.55 28.9145 117.697 28.6085 117.697 27.8525C117.697 26.8885 118.759 26.5175 119.676 26.5175C120.495 26.5175 120.882 26.6955 121.38 26.9355C121.235 28.0945 120.238 28.9145 119.16 28.9145ZM119.386 22.0625C118.035 22.0625 116.636 22.6585 116.057 23.9765L117.713 24.6685C118.067 23.9765 118.726 23.7515 119.418 23.7515C120.383 23.7515 121.364 24.3305 121.38 25.3595V25.4885C121.042 25.2955 120.318 25.0065 119.434 25.0065C117.648 25.0065 115.831 25.9875 115.831 27.8205C115.831 29.4935 117.295 30.5715 118.935 30.5715C120.189 30.5715 120.882 30.0085 121.315 29.3485H121.38V30.3135H123.182V25.5205C123.182 23.3015 121.524 22.0625 119.386 22.0625ZM107.854 23.8585H105.2V19.5735H107.854C109.249 19.5735 110.041 20.7275 110.041 21.7155C110.041 22.6845 109.249 23.8585 107.854 23.8585ZM107.806 17.8325H103.335V30.3345H105.2V25.5985H107.806C109.874 25.5985 111.907 24.1005 111.907 21.7155C111.907 19.3305 109.874 17.8325 107.806 17.8325ZM83.425 28.9165C82.136 28.9165 81.057 27.8375 81.057 26.3555C81.057 24.8565 82.136 23.7615 83.425 23.7615C84.697 23.7615 85.696 24.8565 85.696 26.3555C85.696 27.8375 84.697 28.9165 83.425 28.9165ZM85.567 23.0365H85.503C85.084 22.5375 84.278 22.0855 83.264 22.0855C81.137 22.0855 79.187 23.9545 79.187 26.3555C79.187 28.7395 81.137 30.5925 83.264 30.5925C84.278 30.5925 85.084 30.1415 85.503 29.6255H85.567V30.2375C85.567 31.8655 84.697 32.7345 83.296 32.7345C82.152 32.7345 81.443 31.9135 81.153 31.2205L79.526 31.8975C79.993 33.0245 81.233 34.4105 83.296 34.4105C85.487 34.4105 87.34 33.1215 87.34 29.9795V22.3435H85.567V23.0365ZM88.629 30.3345H90.497V17.8335H88.629V30.3345ZM93.252 26.2105C93.204 24.5665 94.525 23.7295 95.475 23.7295C96.217 23.7295 96.845 24.1005 97.055 24.6315L93.252 26.2105ZM99.052 24.7925C98.697 23.8425 97.618 22.0855 95.411 22.0855C93.22 22.0855 91.399 23.8095 91.399 26.3395C91.399 28.7235 93.204 30.5925 95.62 30.5925C97.569 30.5925 98.697 29.4005 99.165 28.7075L97.715 27.7405C97.231 28.4495 96.571 28.9165 95.62 28.9165C94.67 28.9165 93.993 28.4815 93.559 27.6275L99.245 25.2755L99.052 24.7925ZM53.744 23.3915V25.1955H58.061C57.933 26.2105 57.594 26.9515 57.079 27.4665C56.45 28.0955 55.467 28.7885 53.744 28.7885C51.085 28.7885 49.007 26.6455 49.007 23.9875C49.007 21.3295 51.085 19.1855 53.744 19.1855C55.178 19.1855 56.225 19.7495 56.998 20.4755L58.271 19.2025C57.191 18.1715 55.758 17.3815 53.744 17.3815C50.102 17.3815 47.041 20.3465 47.041 23.9875C47.041 27.6275 50.102 30.5925 53.744 30.5925C55.709 30.5925 57.191 29.9475 58.351 28.7395C59.543 27.5475 59.914 25.8715 59.914 24.5185C59.914 24.1005 59.882 23.7135 59.817 23.3915H53.744ZM64.822 28.9165C63.534 28.9165 62.422 27.8535 62.422 26.3395C62.422 24.8085 63.534 23.7615 64.822 23.7615C66.111 23.7615 67.223 24.8085 67.223 26.3395C67.223 27.8535 66.111 28.9165 64.822 28.9165ZM64.822 22.0855C62.47 22.0855 60.553 23.8745 60.553 26.3395C60.553 28.7885 62.47 30.5925 64.822 30.5925C67.175 30.5925 69.092 28.7885 69.092 26.3395C69.092 23.8745 67.175 22.0855 64.822 22.0855ZM74.136 28.9165C72.847 28.9165 71.735 27.8535 71.735 26.3395C71.735 24.8085 72.847 23.7615 74.136 23.7615C75.425 23.7615 76.536 24.8085 76.536 26.3395C76.536 27.8535 75.425 28.9165 74.136 28.9165ZM74.136 22.0855C71.784 22.0855 69.867 23.8745 69.867 26.3395C69.867 28.7885 71.784 30.5925 74.136 30.5925C76.488 30.5925 78.405 28.7885 78.405 26.3395C78.405 23.8745 76.488 22.0855 74.136 22.0855Z" fill="#5F72FF"/>
<path fill-rule="evenodd" clip-rule="evenodd" d="M52.6734 12.5806C53.1704 12.0826 53.4184 11.4156 53.4184 10.5776C53.4184 10.4316 53.4044 10.2816 53.3764 10.1246H50.4694V10.8456H52.6474C52.6034 11.3656 52.4354 11.7696 52.1454 12.0606C51.6974 12.5076 51.1394 12.7306 50.4694 12.7306C49.8374 12.7306 49.2914 12.5096 48.8304 12.0646C48.3694 11.6206 48.1394 11.0436 48.1394 10.3346C48.1394 9.62456 48.3694 9.04856 48.8304 8.60356C49.2914 8.15956 49.8374 7.93756 50.4694 7.93756C51.1674 7.93756 51.7144 8.17556 52.1114 8.64956L52.6394 8.12156C52.4044 7.84256 52.0914 7.61956 51.7004 7.45156C51.3104 7.28456 50.8984 7.20056 50.4694 7.20056C49.6034 7.20056 48.8664 7.50056 48.2614 8.10056C47.6544 8.70156 47.3524 9.44556 47.3524 10.3346C47.3524 11.2226 47.6544 11.9676 48.2614 12.5676C48.8664 13.1686 49.6034 13.4686 50.4694 13.4686C51.3734 13.4686 52.1084 13.1726 52.6734 12.5806ZM55.2957 8.07166H58.0277V7.33466H54.5247V13.3347H58.0277V12.5967H55.2957V10.6947H57.7587V9.97366H55.2957V8.07166ZM61.2787 13.3344H60.5077V8.07136H58.8317V7.33436H62.9547V8.07136H61.2787V13.3344ZM66.709 13.3345H65.938V7.33446H66.709V13.3345ZM70.1283 13.3344H69.3573V8.07136H67.6813V7.33436H71.8043V8.07136H70.1283V13.3344ZM77.4092 13.4686C78.2862 13.4686 79.0192 13.1656 79.6092 12.5586C80.1982 11.9526 80.4932 11.2116 80.4932 10.3346C80.4932 9.46256 80.1972 8.72256 79.6052 8.11356C79.0122 7.50456 78.2812 7.20056 77.4092 7.20056C76.5322 7.20056 75.7992 7.50356 75.2102 8.10956C74.6202 8.71556 74.3262 9.45756 74.3262 10.3346C74.3262 11.2116 74.6202 11.9526 75.2102 12.5586C75.7992 13.1656 76.5322 13.4686 77.4092 13.4686ZM75.7792 12.0566C76.2232 12.5066 76.7662 12.7306 77.4092 12.7306C78.0512 12.7306 78.5952 12.5066 79.0392 12.0566C79.4832 11.6066 79.7062 11.0326 79.7062 10.3346C79.7062 9.63656 79.4832 9.06156 79.0392 8.61256C78.5952 8.16256 78.0512 7.93756 77.4092 7.93756C76.7662 7.93756 76.2232 8.16256 75.7792 8.61256C75.3362 9.06156 75.1132 9.63656 75.1132 10.3346C75.1132 11.0326 75.3362 11.6066 75.7792 12.0566ZM81.5751 7.33436V13.3344H82.3461V9.59736L82.3121 8.44036H82.3461L85.3961 13.3344H86.2011V7.33436H85.4291V10.8454L85.4631 12.0014H85.4291L82.5131 7.33436H81.5751Z" fill="#5F72FF"/>
<path fill-rule="evenodd" clip-rule="evenodd" d="M16.5003 7.8088C16.4972 7.81168 16.4941 7.81458 16.491 7.8175L16.509 7.79949C16.7447 7.58772 17.0464 7.47449 17.393 7.47449C17.731 7.47449 18.112 7.58249 18.514 7.81149L33.122 16.1115L38.015 18.8915C39.412 19.6855 39.412 20.9855 38.015 21.7805L33.122 24.5605L33.0553 24.5974L18.514 32.8595C17.9069 33.2045 17.3479 33.2745 16.91 33.1124C16.7618 33.0576 16.6274 32.9761 16.5098 32.8697L16.4905 32.852C16.4719 32.8344 16.4537 32.8163 16.436 32.7975C16.145 32.4905 15.973 32.0135 15.973 31.3935V9.27749C15.973 8.65849 16.145 8.18049 16.436 7.87249C16.5066 7.80306 16.5035 7.80592 16.5003 7.8088C16.4783 7.82915 16.4568 7.85038 16.436 7.87249L28.899 20.3355L16.436 32.7975L33.122 16.1115L28.899 20.3355L16.5003 7.8088Z" fill="#5F72FF"/>
</svg>
