<svg width="18" height="19" viewBox="0 0 18 19" fill="none" xmlns="http://www.w3.org/2000/svg">
<g opacity="0.7">
<path d="M3.75 16C3.3375 16 2.98425 15.853 2.69025 15.559C2.39625 15.265 2.2495 14.912 2.25 14.5V4C2.25 3.5875 2.397 3.23425 2.691 2.94025C2.985 2.64625 3.338 2.4995 3.75 2.5H14.25C14.6625 2.5 15.0158 2.647 15.3098 2.941C15.6038 3.235 15.7505 3.588 15.75 4V14.5C15.75 14.9125 15.603 15.2658 15.309 15.5598C15.015 15.8538 14.662 16.0005 14.25 16H3.75ZM3.75 14.5H14.25V4H3.75V14.5ZM4.5 13H13.5L10.6875 9.25L8.4375 12.25L6.75 10L4.5 13Z" fill="black"/>
</g>
</svg>
