<svg width="51" height="43" viewBox="0 0 51 43" fill="none" xmlns="http://www.w3.org/2000/svg">
<rect y="0.875" width="51" height="42" rx="3" fill="white"/>
<path fill-rule="evenodd" clip-rule="evenodd" d="M48 0.875H3C1.34315 0.875 0 2.21815 0 3.875V39.875C0 41.5319 1.34315 42.875 3 42.875H48C49.6569 42.875 51 41.5319 51 39.875V3.875C51 2.21815 49.6569 0.875 48 0.875ZM3 39.875V3.875H48V39.875H3Z" fill="#C2D1D9"/>
<path fill-rule="evenodd" clip-rule="evenodd" d="M8.25 13.25C8.25 16.3566 10.7684 18.875 13.875 18.875C16.9816 18.875 19.5 16.3566 19.5 13.25C19.5 10.1434 16.9816 7.625 13.875 7.625C10.7684 7.625 8.25 10.1434 8.25 13.25ZM16.5 13.25C16.5 14.6997 15.3247 15.875 13.875 15.875C12.4253 15.875 11.25 14.6997 11.25 13.25C11.25 11.8003 12.4253 10.625 13.875 10.625C15.3247 10.625 16.5 11.8003 16.5 13.25Z" fill="#C2D1D9"/>
<path d="M10.8061 36.4403C10.2178 37.0235 9.26801 37.0194 8.68477 36.4311C8.10152 35.8428 8.10562 34.8931 8.69393 34.3098L21.0309 22.079L27.9844 28.1271C28.6095 28.6708 28.6755 29.6183 28.1318 30.2433C27.5881 30.8684 26.6406 30.9344 26.0156 30.3907L21.1644 26.1711L10.8061 36.4403Z" fill="#C2D1D9"/>
<path d="M22.0607 36.4357C21.4749 37.0215 20.5252 37.0215 19.9394 36.4358C19.3536 35.85 19.3535 34.9003 19.9393 34.3144L39.6813 14.5707L50.4893 24.054C51.112 24.6004 51.1739 25.5481 50.6275 26.1708C50.0811 26.7935 49.1334 26.8554 48.5107 26.309L39.8154 18.6794L22.0607 36.4357Z" fill="#C2D1D9"/>
</svg>
