<svg width="299" height="126" viewBox="0 0 299 126" fill="none" xmlns="http://www.w3.org/2000/svg">
<path d="M183.929 58.1655C179.02 61.2729 173.193 63.0729 166.943 63.0729C160.966 63.0729 155.376 61.4268 150.605 58.5654C152.675 59.0847 154.963 59.3444 157.472 59.3444C160.368 59.3444 163.001 58.9514 165.37 58.1655C167.739 57.4451 169.878 56.3318 171.787 54.8255C172.431 54.2951 173.056 53.7201 173.663 53.1003V58.1655H183.929Z" fill="white"/>
<path fill-rule="evenodd" clip-rule="evenodd" d="M187.484 55.5529V22.8C187.484 18.936 186.497 15.5632 184.523 12.6816C182.614 9.73444 179.916 7.44223 176.427 5.80494C172.939 4.16765 168.924 3.34901 164.383 3.34901C160.565 3.34901 157.044 3.93843 153.819 5.11728C150.594 6.29613 147.83 7.96617 145.526 10.1274C143.223 12.2886 141.544 14.8755 140.491 17.8882L152.338 23.4877C153.26 21.13 154.708 19.2307 156.682 17.7899C158.723 16.3491 161.059 15.6287 163.692 15.6287C166.456 15.6287 168.628 16.3164 170.208 17.6917C171.853 19.067 172.676 20.7698 172.676 22.8V24.233L157.768 26.6313C153.49 27.2862 149.903 28.3996 147.007 29.9714C144.177 31.5432 142.071 33.5079 140.689 35.8656C139.307 38.1578 138.616 40.8102 138.616 43.8229C138.616 47.0319 139.372 49.8153 140.886 52.173C142.4 54.4653 144.572 56.2335 147.402 57.4779C147.983 57.7333 148.586 57.9625 149.212 58.1655H135.412V53.1003C134.805 53.7201 134.18 54.2951 133.536 54.8255C131.627 56.3318 129.488 57.4451 127.119 58.1655C124.749 58.9514 122.117 59.3444 119.221 59.3444C115.337 59.3444 111.981 58.7222 109.151 57.4779C106.321 56.2335 104.149 54.4653 102.635 52.173C101.121 49.8153 100.364 47.0319 100.364 43.8229C100.364 40.8102 101.055 38.1578 102.437 35.8656C103.82 33.5079 105.926 31.5432 108.756 29.9714C111.652 28.3996 115.239 27.2862 119.517 26.6313L134.424 24.233V22.8C134.424 20.7698 133.602 19.067 131.956 17.6917C130.377 16.3164 128.205 15.6287 125.44 15.6287C122.808 15.6287 120.471 16.3491 118.431 17.7899C116.456 19.2307 115.008 21.13 114.087 23.4877L102.24 17.8882C103.293 14.8755 104.971 12.2886 107.275 10.1274C109.578 7.96617 112.343 6.29613 115.568 5.11728C118.793 3.93843 122.314 3.34901 126.131 3.34901C130.673 3.34901 134.688 4.16765 138.176 5.80494C140.438 6.86659 142.367 8.20359 143.965 9.81595C149.739 3.7696 157.899 0 166.943 0C184.446 0 198.636 14.1194 198.636 31.5365C198.636 41.1554 194.308 49.7685 187.484 55.5529ZM122.182 37.2409L134.424 35.0657V36.7498C134.424 38.911 133.898 40.9085 132.845 42.7422C131.857 44.5105 130.442 45.9186 128.599 46.9665C126.757 48.0143 124.618 48.5383 122.182 48.5383C120.34 48.5383 118.793 48.0798 117.542 47.1629C116.292 46.246 115.667 44.969 115.667 43.3317C115.667 41.5634 116.226 40.2208 117.345 39.3039C118.464 38.3216 120.076 37.6339 122.182 37.2409Z" fill="white"/>
<path d="M172.676 35.0657L160.434 37.2409C158.328 37.6339 156.715 38.3216 155.596 39.3039C154.477 40.2208 153.918 41.5634 153.918 43.3317C153.918 44.969 154.543 46.246 155.794 47.1629C157.044 48.0798 158.591 48.5383 160.434 48.5383C162.869 48.5383 165.008 48.0143 166.851 46.9665C168.694 45.9186 170.109 44.5105 171.096 42.7422C172.149 40.9085 172.676 38.911 172.676 36.7498V35.0657Z" fill="white"/>
<path d="M0.787418 115.334L11.7666 82.8758H20.7417L31.721 115.334H24.3579L22.1795 108.712H10.2853L8.1069 115.334H0.787418ZM12.1588 102.83H20.306L15.3393 87.494H17.1691L12.1588 102.83ZM32.6978 115.334L43.6771 82.8758H52.6521L63.6314 115.334H56.2683L54.0899 108.712H42.1957L40.0173 115.334H32.6978ZM44.0692 102.83H52.2165L47.2497 87.494H49.0795L44.0692 102.83ZM68.1373 106.272V100.608H87.743V106.272H68.1373ZM106.425 115.857C104.391 115.857 102.474 115.494 100.674 114.768C98.9019 114.013 97.3625 112.952 96.0554 111.587C94.7774 110.222 93.8189 108.61 93.1799 106.751L98.7131 104.268C99.5264 106.04 100.645 107.434 102.068 108.45C103.52 109.467 105.118 109.975 106.86 109.975C107.79 109.975 108.589 109.83 109.257 109.54C109.925 109.249 110.447 108.857 110.825 108.363C111.203 107.84 111.391 107.231 111.391 106.533C111.391 105.778 111.159 105.139 110.694 104.616C110.23 104.065 109.504 103.629 108.516 103.309L102.155 101.218C99.5699 100.376 97.6239 99.1849 96.3168 97.6455C95.0098 96.077 94.3563 94.2036 94.3563 92.0252C94.3563 90.1081 94.821 88.4235 95.7504 86.9712C96.7089 85.5189 98.0305 84.3862 99.7152 83.5729C101.429 82.7596 103.389 82.353 105.597 82.353C107.543 82.353 109.344 82.687 110.999 83.3551C112.655 84.0231 114.078 84.9671 115.269 86.187C116.489 87.4069 117.404 88.8737 118.014 90.5874L112.524 93.0708C111.914 91.5604 110.999 90.3841 109.779 89.5418C108.56 88.6704 107.165 88.2347 105.597 88.2347C104.696 88.2347 103.898 88.3799 103.201 88.6704C102.504 88.9608 101.966 89.382 101.589 89.9339C101.211 90.4567 101.022 91.0667 101.022 91.7637C101.022 92.5189 101.269 93.187 101.763 93.7679C102.257 94.3198 102.997 94.7554 103.985 95.0749L110.215 97.0791C112.829 97.9214 114.775 99.0978 116.053 100.608C117.36 102.118 118.014 103.963 118.014 106.141C118.014 108.029 117.52 109.714 116.533 111.195C115.545 112.648 114.18 113.795 112.437 114.637C110.723 115.45 108.719 115.857 106.425 115.857ZM122.347 115.334V82.353H128.882V96.2513L128.098 95.2056C128.65 93.7824 129.536 92.7368 130.756 92.0687C132.005 91.3716 133.457 91.0231 135.113 91.0231C136.914 91.0231 138.482 91.4007 139.818 92.1559C141.183 92.911 142.243 93.9712 142.999 95.3364C143.754 96.6724 144.131 98.2409 144.131 100.042V115.334H137.596V101.436C137.596 100.506 137.407 99.7077 137.03 99.0397C136.681 98.3716 136.173 97.8488 135.505 97.4712C134.866 97.0936 134.111 96.9048 133.239 96.9048C132.397 96.9048 131.642 97.0936 130.974 97.4712C130.306 97.8488 129.783 98.3716 129.405 99.0397C129.057 99.7077 128.882 100.506 128.882 101.436V115.334H122.347ZM160.236 115.857C157.883 115.857 155.734 115.32 153.788 114.245C151.871 113.17 150.331 111.704 149.169 109.845C148.037 107.957 147.47 105.822 147.47 103.44C147.47 101.029 148.037 98.8944 149.169 97.0355C150.331 95.1766 151.871 93.7098 153.788 92.6351C155.734 91.5604 157.883 91.0231 160.236 91.0231C162.588 91.0231 164.723 91.5604 166.64 92.6351C168.557 93.7098 170.082 95.1766 171.215 97.0355C172.377 98.8944 172.958 101.029 172.958 103.44C172.958 105.822 172.377 107.957 171.215 109.845C170.082 111.704 168.557 113.17 166.64 114.245C164.723 115.32 162.588 115.857 160.236 115.857ZM160.236 109.975C161.427 109.975 162.458 109.699 163.329 109.148C164.229 108.596 164.927 107.826 165.42 106.838C165.943 105.851 166.205 104.718 166.205 103.44C166.205 102.162 165.943 101.044 165.42 100.085C164.927 99.0978 164.229 98.328 163.329 97.7762C162.458 97.1953 161.427 96.9048 160.236 96.9048C159.045 96.9048 157.999 97.1953 157.099 97.7762C156.198 98.328 155.487 99.0978 154.964 100.085C154.47 101.044 154.223 102.162 154.223 103.44C154.223 104.718 154.47 105.851 154.964 106.838C155.487 107.826 156.198 108.596 157.099 109.148C157.999 109.699 159.045 109.975 160.236 109.975ZM176.808 124.048V91.5459H182.907V96.077L182.341 94.77C183.125 93.5791 184.185 92.6642 185.521 92.0252C186.886 91.3571 188.44 91.0231 190.183 91.0231C192.449 91.0231 194.496 91.575 196.326 92.6787C198.156 93.7824 199.608 95.2783 200.683 97.1662C201.758 99.0251 202.295 101.116 202.295 103.44C202.295 105.735 201.758 107.826 200.683 109.714C199.637 111.602 198.2 113.098 196.37 114.201C194.54 115.305 192.463 115.857 190.14 115.857C188.513 115.857 187.003 115.567 185.608 114.986C184.243 114.376 183.14 113.49 182.297 112.328L183.343 110.977V124.048H176.808ZM189.355 109.975C190.575 109.975 191.65 109.699 192.579 109.148C193.509 108.596 194.235 107.826 194.758 106.838C195.281 105.851 195.542 104.718 195.542 103.44C195.542 102.162 195.281 101.044 194.758 100.085C194.235 99.0978 193.509 98.328 192.579 97.7762C191.65 97.1953 190.575 96.9048 189.355 96.9048C188.194 96.9048 187.148 97.1807 186.218 97.7326C185.318 98.2845 184.606 99.0542 184.084 100.042C183.59 101.029 183.343 102.162 183.343 103.44C183.343 104.718 183.59 105.851 184.084 106.838C184.606 107.826 185.318 108.596 186.218 109.148C187.148 109.699 188.194 109.975 189.355 109.975ZM206.123 124.048V91.5459H212.222V96.077L211.656 94.77C212.44 93.5791 213.5 92.6642 214.836 92.0252C216.202 91.3571 217.755 91.0231 219.498 91.0231C221.764 91.0231 223.811 91.575 225.641 92.6787C227.471 93.7824 228.923 95.2783 229.998 97.1662C231.073 99.0251 231.61 101.116 231.61 103.44C231.61 105.735 231.073 107.826 229.998 109.714C228.953 111.602 227.515 113.098 225.685 114.201C223.855 115.305 221.778 115.857 219.455 115.857C217.828 115.857 216.318 115.567 214.924 114.986C213.558 114.376 212.455 113.49 211.612 112.328L212.658 110.977V124.048H206.123ZM218.67 109.975C219.89 109.975 220.965 109.699 221.894 109.148C222.824 108.596 223.55 107.826 224.073 106.838C224.596 105.851 224.857 104.718 224.857 103.44C224.857 102.162 224.596 101.044 224.073 100.085C223.55 99.0978 222.824 98.328 221.894 97.7762C220.965 97.1953 219.89 96.9048 218.67 96.9048C217.509 96.9048 216.463 97.1807 215.533 97.7326C214.633 98.2845 213.921 99.0542 213.399 100.042C212.905 101.029 212.658 102.162 212.658 103.44C212.658 104.718 212.905 105.851 213.399 106.838C213.921 107.826 214.633 108.596 215.533 109.148C216.463 109.699 217.509 109.975 218.67 109.975ZM235.438 115.334V91.5459H241.973V115.334H235.438ZM235.438 89.4111V82.8758H241.973V89.4111H235.438ZM246.755 115.334V91.5459H252.855V96.2513L252.506 95.2056C253.058 93.7824 253.944 92.7368 255.164 92.0687C256.413 91.3716 257.865 91.0231 259.521 91.0231C261.322 91.0231 262.89 91.4007 264.226 92.1559C265.591 92.911 266.652 93.9712 267.407 95.3364C268.162 96.6724 268.539 98.2409 268.539 100.042V115.334H262.004V101.436C262.004 100.506 261.815 99.7077 261.438 99.0397C261.089 98.3716 260.581 97.8488 259.913 97.4712C259.274 97.0936 258.519 96.9048 257.647 96.9048C256.805 96.9048 256.05 97.0936 255.382 97.4712C254.714 97.8488 254.191 98.3716 253.813 99.0397C253.465 99.7077 253.291 100.506 253.291 101.436V115.334H246.755ZM284.513 124.919C282.683 124.919 280.984 124.614 279.416 124.004C277.847 123.394 276.496 122.538 275.364 121.434C274.26 120.359 273.461 119.081 272.967 117.6L279.023 115.465C279.343 116.569 279.996 117.44 280.984 118.079C281.972 118.718 283.148 119.038 284.513 119.038C285.588 119.038 286.517 118.834 287.301 118.428C288.086 118.05 288.681 117.484 289.088 116.728C289.523 115.973 289.741 115.087 289.741 114.071V108.625L291.005 110.193C290.191 111.529 289.146 112.531 287.868 113.199C286.59 113.838 285.094 114.158 283.38 114.158C281.173 114.158 279.198 113.664 277.455 112.677C275.712 111.66 274.347 110.28 273.36 108.538C272.372 106.766 271.878 104.762 271.878 102.525C271.878 100.289 272.372 98.3135 273.36 96.5998C274.347 94.8571 275.698 93.492 277.411 92.5044C279.125 91.5169 281.071 91.0231 283.25 91.0231C284.963 91.0231 286.459 91.3716 287.737 92.0687C289.015 92.7368 290.104 93.7679 291.005 95.1621L290.177 96.7305V91.5459H296.277V114.071C296.277 116.162 295.768 118.021 294.752 119.647C293.735 121.303 292.341 122.596 290.569 123.525C288.826 124.455 286.808 124.919 284.513 124.919ZM284.295 108.233C285.399 108.233 286.357 108 287.171 107.535C287.984 107.071 288.608 106.417 289.044 105.575C289.509 104.733 289.741 103.745 289.741 102.612C289.741 101.479 289.509 100.492 289.044 99.6496C288.579 98.7783 287.94 98.1102 287.127 97.6455C286.314 97.1517 285.37 96.9048 284.295 96.9048C283.191 96.9048 282.204 97.1517 281.333 97.6455C280.49 98.1102 279.822 98.7783 279.328 99.6496C278.864 100.492 278.631 101.479 278.631 102.612C278.631 103.716 278.864 104.689 279.328 105.531C279.822 106.374 280.49 107.042 281.333 107.535C282.204 108 283.191 108.233 284.295 108.233Z" fill="white"/>
</svg>
