<svg width="24" height="24" viewBox="0 0 24 24" fill="none" xmlns="http://www.w3.org/2000/svg">
<circle cx="12" cy="12" r="11" fill="#5F72FF" stroke="#5F72FF" stroke-width="2"/>
<path d="M18.4331 17.75C18.3892 17.826 18.3261 17.8891 18.25 17.933C18.174 17.9769 18.0878 18 18 18H5.99998C5.91225 17.9999 5.82609 17.9767 5.75016 17.9328C5.67422 17.8889 5.61117 17.8258 5.56735 17.7498C5.52352 17.6738 5.50047 17.5876 5.50049 17.4999C5.50051 17.4121 5.52361 17.326 5.56748 17.25C6.51935 15.6044 7.98623 14.4244 9.6981 13.865C8.85133 13.3609 8.19344 12.5928 7.82547 11.6786C7.45749 10.7644 7.39978 9.75474 7.66119 8.80459C7.9226 7.85444 8.48868 7.01636 9.27249 6.41907C10.0563 5.82178 11.0145 5.49829 12 5.49829C12.9854 5.49829 13.9436 5.82178 14.7275 6.41907C15.5113 7.01636 16.0774 7.85444 16.3388 8.80459C16.6002 9.75474 16.5425 10.7644 16.1745 11.6786C15.8065 12.5928 15.1486 13.3609 14.3019 13.865C16.0137 14.4244 17.4806 15.6044 18.4325 17.25C18.4765 17.3259 18.4997 17.4121 18.4998 17.4999C18.4999 17.5877 18.4769 17.6739 18.4331 17.75Z" fill="white"/>
</svg>
