<svg width="140" height="141" viewBox="0 0 140 141" fill="none" xmlns="http://www.w3.org/2000/svg">
<circle cx="70" cy="70.3002" r="70" fill="#D9D9D9"/>
<g opacity="0.4">
<path d="M104.906 97.2064C100.407 89.3108 93.3823 83.1586 84.9623 79.7403C89.1495 76.6 92.2424 72.2218 93.803 67.2259C95.3636 62.23 95.3127 56.8698 93.6576 51.9044C92.0025 46.9391 88.827 42.6203 84.581 39.56C80.335 36.4997 75.2338 34.8528 69.9998 34.8528C64.7659 34.8528 59.6646 36.4997 55.4186 39.56C51.1726 42.6203 47.9971 46.9391 46.342 51.9044C44.6869 56.8698 44.636 62.23 46.1966 67.2259C47.7572 72.2218 50.8502 76.6 55.0373 79.7403C46.6174 83.1586 39.5926 89.3108 35.0939 97.2064C34.8151 97.6547 34.6293 98.1544 34.5475 98.6758C34.4658 99.1973 34.4897 99.7299 34.6178 100.242C34.746 100.754 34.9758 101.235 35.2936 101.656C35.6114 102.078 36.0107 102.431 36.4677 102.695C36.9248 102.959 37.4302 103.129 37.9541 103.194C38.4779 103.258 39.0094 103.217 39.5171 103.072C40.0247 102.928 40.498 102.682 40.9089 102.351C41.3198 102.02 41.6599 101.609 41.909 101.144C47.8547 90.8671 58.3547 84.7377 69.9998 84.7377C81.645 84.7377 92.145 90.8703 98.0906 101.144C98.6304 102.012 99.4866 102.636 100.478 102.884C101.47 103.132 102.519 102.985 103.404 102.474C104.289 101.963 104.941 101.127 105.221 100.144C105.501 99.1611 105.388 98.1076 104.906 97.2064ZM52.9373 59.8002C52.9373 56.4255 53.938 53.1267 55.8129 50.3208C57.6877 47.5149 60.3525 45.3279 63.4703 44.0365C66.588 42.7451 70.0187 42.4072 73.3285 43.0655C76.6383 43.7239 79.6786 45.3489 82.0648 47.7352C84.451 50.1214 86.0761 53.1617 86.7345 56.4715C87.3928 59.7813 87.0549 63.212 85.7635 66.3297C84.4721 69.4475 82.2851 72.1123 79.4792 73.9871C76.6733 75.862 73.3745 76.8627 69.9998 76.8627C65.4762 76.8575 61.1393 75.0582 57.9406 71.8594C54.7418 68.6607 52.9425 64.3238 52.9373 59.8002Z" fill="black"/>
</g>
</svg>
