<svg width="120" height="120" viewBox="0 0 120 120" fill="none" xmlns="http://www.w3.org/2000/svg">
<g opacity="0.4">
<path d="M109.866 98.4375C103.439 87.158 93.4036 78.3692 81.3752 73.486C87.3568 68.9997 91.7753 62.7451 94.0047 55.6082C96.2341 48.4712 96.1614 40.8137 93.797 33.7203C91.4325 26.627 86.8962 20.4574 80.8305 16.0855C74.7647 11.7135 67.4772 9.36096 60.0001 9.36096C52.5231 9.36096 45.2356 11.7135 39.1698 16.0855C33.1041 20.4574 28.5678 26.627 26.2033 33.7203C23.8388 40.8137 23.7662 48.4712 25.9956 55.6082C28.225 62.7451 32.6435 68.9997 38.6251 73.486C26.5967 78.3692 16.5613 87.158 10.1345 98.4375C9.7363 99.0778 9.47088 99.7917 9.35405 100.537C9.23723 101.282 9.27137 102.042 9.45446 102.774C9.63756 103.505 9.96585 104.193 10.4198 104.795C10.8738 105.397 11.4442 105.901 12.0972 106.279C12.7501 106.656 13.4722 106.898 14.2205 106.991C14.9689 107.083 15.7282 107.024 16.4534 106.818C17.1785 106.611 17.8547 106.26 18.4417 105.787C19.0288 105.314 19.5146 104.727 19.8705 104.063C28.3642 89.3813 43.3642 80.625 60.0001 80.625C76.6361 80.625 91.6361 89.386 100.13 104.063C100.901 105.303 102.124 106.194 103.541 106.549C104.957 106.903 106.456 106.693 107.72 105.962C108.985 105.232 109.916 104.038 110.316 102.634C110.716 101.23 110.555 99.7249 109.866 98.4375ZM35.6251 45C35.6251 40.1791 37.0547 35.4664 39.7331 31.458C42.4114 27.4496 46.2183 24.3253 50.6722 22.4805C55.1262 20.6356 60.0272 20.1529 64.7555 21.0934C69.4838 22.0339 73.827 24.3554 77.2359 27.7643C80.6448 31.1732 82.9663 35.5164 83.9068 40.2447C84.8473 44.973 84.3646 49.874 82.5197 54.3279C80.6748 58.7819 77.5506 62.5887 73.5422 65.2671C69.5337 67.9454 64.8211 69.375 60.0001 69.375C53.5378 69.3676 47.3422 66.7971 42.7726 62.2275C38.2031 57.6579 35.6326 51.4624 35.6251 45Z" fill="black"/>
</g>
</svg>
