<svg width="20" height="20" viewBox="0 0 20 20" fill="none" xmlns="http://www.w3.org/2000/svg">
<g clip-path="url(#clip0_576_2984)">
<path d="M10 0C8.02219 0 6.08879 0.58649 4.4443 1.6853C2.79981 2.78412 1.51809 4.3459 0.761209 6.17317C0.00433284 8.00043 -0.193701 10.0111 0.192152 11.9509C0.578004 13.8907 1.53041 15.6725 2.92894 17.0711C4.32746 18.4696 6.10929 19.422 8.0491 19.8079C9.98891 20.1937 11.9996 19.9957 13.8268 19.2388C15.6541 18.4819 17.2159 17.2002 18.3147 15.5557C19.4135 13.9112 20 11.9778 20 10C20 7.34784 18.9464 4.8043 17.0711 2.92893C15.1957 1.05357 12.6522 0 10 0ZM2 10C2.00394 8.22438 2.5985 6.50052 3.69 5.1L14.9 16.31C13.7181 17.2258 12.3032 17.7921 10.8157 17.9445C9.32833 18.097 7.82795 17.8296 6.48481 17.1726C5.14167 16.5156 4.00954 15.4953 3.21683 14.2276C2.42412 12.9598 2.00258 11.4952 2 10ZM16.31 14.9L5.1 3.69C6.64017 2.51942 8.55234 1.94657 10.4824 2.07754C12.4125 2.2085 14.2298 3.03441 15.5977 4.40233C16.9656 5.77024 17.7915 7.58749 17.9225 9.51758C18.0534 11.4477 17.4806 13.3598 16.31 14.9Z" fill="#C03221"/>
</g>
<defs>
<clipPath id="clip0_576_2984">
<rect width="20" height="20" fill="white"/>
</clipPath>
</defs>
</svg>
