<svg width="32" height="32" viewBox="0 0 32 32" fill="none" xmlns="http://www.w3.org/2000/svg">
<circle cx="16.0001" cy="16" r="14.8571" fill="#D9D9D9"/>
<path d="M21.5963 12.4293C21.7243 12.3099 21.8276 12.1664 21.9003 12.0071C21.9729 11.8478 22.0134 11.6757 22.0196 11.5007C22.0257 11.3257 21.9973 11.1512 21.936 10.9871C21.8747 10.8231 21.7817 10.6728 21.6622 10.5447C21.5428 10.4166 21.3994 10.3133 21.24 10.2406C21.0807 10.168 20.9086 10.1275 20.7336 10.1213C20.5586 10.1152 20.3841 10.1436 20.22 10.2049C20.056 10.2662 19.9057 10.3593 19.7776 10.4787L15.8763 14.116L12.2389 10.2133C11.9955 9.96406 11.6643 9.81995 11.316 9.81183C10.9677 9.8037 10.6301 9.93222 10.3753 10.1699C10.1206 10.4075 9.96899 10.7355 9.95297 11.0835C9.93694 11.4315 10.0578 11.7719 10.2896 12.032L13.9269 15.9333L10.0242 19.5707C9.89164 19.6889 9.78399 19.8324 9.70762 19.9928C9.63126 20.1532 9.58771 20.3272 9.57954 20.5047C9.57137 20.6821 9.59874 20.8594 9.66004 21.0261C9.72135 21.1929 9.81536 21.3457 9.93654 21.4755C10.0577 21.6054 10.2036 21.7098 10.3657 21.7825C10.5278 21.8552 10.7028 21.8948 10.8804 21.899C11.058 21.9031 11.2346 21.8717 11.3999 21.8066C11.5652 21.7416 11.7158 21.6441 11.8429 21.52L15.7443 17.884L19.3816 21.7853C19.499 21.9204 19.6425 22.0304 19.8033 22.1089C19.9642 22.1873 20.1392 22.2326 20.318 22.2419C20.4967 22.2513 20.6755 22.2246 20.8437 22.1634C21.0119 22.1021 21.166 22.0077 21.2969 21.8857C21.4278 21.7636 21.5328 21.6165 21.6057 21.453C21.6785 21.2895 21.7177 21.113 21.7208 20.934C21.724 20.7551 21.6911 20.5773 21.6241 20.4114C21.5571 20.2454 21.4574 20.0946 21.3309 19.968L17.6949 16.0667L21.5963 12.4293Z" fill="#131313"/>
</svg>
