<svg width="120" height="120" viewBox="0 0 120 120" fill="none" xmlns="http://www.w3.org/2000/svg">
<rect width="120" height="120" fill="#D9D9D9"/>
<rect x="35" y="39" width="51" height="42" rx="3" fill="white"/>
<path fill-rule="evenodd" clip-rule="evenodd" d="M83 39H38C36.3431 39 35 40.3431 35 42V78C35 79.6569 36.3431 81 38 81H83C84.6569 81 86 79.6569 86 78V42C86 40.3431 84.6569 39 83 39ZM38 78V42H83V78H38Z" fill="#C2D1D9"/>
<path fill-rule="evenodd" clip-rule="evenodd" d="M43.25 51.375C43.25 54.4816 45.7684 57 48.875 57C51.9816 57 54.5 54.4816 54.5 51.375C54.5 48.2684 51.9816 45.75 48.875 45.75C45.7684 45.75 43.25 48.2684 43.25 51.375ZM51.5 51.375C51.5 52.8247 50.3247 54 48.875 54C47.4253 54 46.25 52.8247 46.25 51.375C46.25 49.9253 47.4253 48.75 48.875 48.75C50.3247 48.75 51.5 49.9253 51.5 51.375Z" fill="#C2D1D9"/>
<path d="M45.8061 74.5652C45.2178 75.1485 44.268 75.1444 43.6848 74.556C43.1015 73.9677 43.1056 73.018 43.6939 72.4347L56.0309 60.2039L62.9844 66.2521C63.6095 66.7957 63.6755 67.7432 63.1318 68.3683C62.5881 68.9933 61.6406 69.0593 61.0156 68.5156L56.1644 64.296L45.8061 74.5652Z" fill="#C2D1D9"/>
<path d="M57.0607 74.5606C56.4749 75.1464 55.5252 75.1465 54.9394 74.5607C54.3536 73.9749 54.3535 73.0252 54.9393 72.4394L74.6813 52.6956L85.4893 62.1789C86.112 62.7253 86.1739 63.673 85.6275 64.2957C85.0811 64.9184 84.1334 64.9803 83.5107 64.4339L74.8154 56.8044L57.0607 74.5606Z" fill="#C2D1D9"/>
</svg>
