<svg width="26" height="27" viewBox="0 0 26 27" fill="none" xmlns="http://www.w3.org/2000/svg">
<path d="M12.9999 25.1667C14.5323 25.1686 16.05 24.8678 17.4657 24.2813C18.8814 23.6949 20.1673 22.8345 21.2494 21.7495C22.3344 20.6674 23.1948 19.3815 23.7813 17.9658C24.3677 16.55 24.6686 15.0324 24.6666 13.5C24.6685 11.9676 24.3677 10.45 23.7812 9.03424C23.1948 7.61852 22.3344 6.33263 21.2494 5.25049C20.1673 4.16551 18.8814 3.30507 17.4657 2.71864C16.05 2.13221 14.5323 1.83134 12.9999 1.83332C11.4676 1.83137 9.9499 2.13225 8.53418 2.71868C7.11845 3.30511 5.83257 4.16553 4.75043 5.25049C3.66547 6.33263 2.80505 7.61852 2.21862 9.03424C1.63219 10.45 1.33131 11.9676 1.33326 13.5C1.33128 15.0324 1.63215 16.55 2.21858 17.9658C2.80501 19.3815 3.66544 20.6674 4.75043 21.7495C5.83257 22.8344 7.11845 23.6949 8.53418 24.2813C9.9499 24.8677 11.4676 25.1686 12.9999 25.1667Z" stroke="#2DCEA6" stroke-width="2.33333" stroke-linejoin="round"/>
<path d="M8.33325 13.5L11.8333 17L18.8333 10" stroke="#2DCEA6" stroke-width="2.33333" stroke-linecap="round" stroke-linejoin="round"/>
</svg>
