<svg width="25" height="24" viewBox="0 0 25 24" fill="none" xmlns="http://www.w3.org/2000/svg">
<path fill-rule="evenodd" clip-rule="evenodd" d="M1.5 4C1.5 4.55228 1.94772 5 2.5 5H4.67058L7.7322 11.5789C7.7306 11.5824 7.72901 11.5858 7.72744 11.5893L6.67669 13.9222C6.22306 14.9293 6.67176 16.1135 7.67889 16.5671C7.93709 16.6834 8.21706 16.7435 8.50025 16.7435H19.0021C19.5544 16.7435 20.0021 16.2958 20.0021 15.7435C20.0021 15.1913 19.5544 14.7435 19.0021 14.7435H8.50025L9.16971 13.2572H18.2133L22.439 5.87668C22.7135 5.39739 22.5474 4.7864 22.0681 4.51198C21.5888 4.23757 20.9778 4.40365 20.7034 4.88294L17.0538 11.2572H9.78845L5.94581 3H2.5C1.94772 3 1.5 3.44772 1.5 4ZM11.5 20C11.5 21.1046 10.6046 22 9.5 22C8.39543 22 7.5 21.1046 7.5 20C7.5 18.8954 8.39543 18 9.5 18C10.6046 18 11.5 18.8954 11.5 20ZM17.5 22C18.6046 22 19.5 21.1046 19.5 20C19.5 18.8954 18.6046 18 17.5 18C16.3954 18 15.5 18.8954 15.5 20C15.5 21.1046 16.3954 22 17.5 22Z" fill="#FBFBFB"/>
<mask id="mask0_576_2988" style="mask-type:luminance" maskUnits="userSpaceOnUse" x="1" y="3" width="22" height="19">
<path fill-rule="evenodd" clip-rule="evenodd" d="M1.5 4C1.5 4.55228 1.94772 5 2.5 5H4.67058L7.7322 11.5789C7.7306 11.5824 7.72901 11.5858 7.72744 11.5893L6.67669 13.9222C6.22306 14.9293 6.67176 16.1135 7.67889 16.5671C7.93709 16.6834 8.21706 16.7435 8.50025 16.7435H19.0021C19.5544 16.7435 20.0021 16.2958 20.0021 15.7435C20.0021 15.1913 19.5544 14.7435 19.0021 14.7435H8.50025L9.16971 13.2572H18.2133L22.439 5.87668C22.7135 5.39739 22.5474 4.7864 22.0681 4.51198C21.5888 4.23757 20.9778 4.40365 20.7034 4.88294L17.0538 11.2572H9.78845L5.94581 3H2.5C1.94772 3 1.5 3.44772 1.5 4ZM11.5 20C11.5 21.1046 10.6046 22 9.5 22C8.39543 22 7.5 21.1046 7.5 20C7.5 18.8954 8.39543 18 9.5 18C10.6046 18 11.5 18.8954 11.5 20ZM17.5 22C18.6046 22 19.5 21.1046 19.5 20C19.5 18.8954 18.6046 18 17.5 18C16.3954 18 15.5 18.8954 15.5 20C15.5 21.1046 16.3954 22 17.5 22Z" fill="white"/>
</mask>
<g mask="url(#mask0_576_2988)">
<rect x="0.5" width="24" height="24" fill="#FBFBFB"/>
</g>
</svg>
