<svg width="18" height="19" viewBox="0 0 18 19" fill="none" xmlns="http://www.w3.org/2000/svg">
<g opacity="0.7">
<path fill-rule="evenodd" clip-rule="evenodd" d="M0.75 3.5C0.75 3.91421 1.08579 4.25 1.5 4.25H3.12794L5.42415 9.18419C5.42295 9.18678 5.42176 9.18938 5.42058 9.19199L4.63252 10.9416C4.2923 11.697 4.62882 12.5851 5.38417 12.9253C5.57782 13.0126 5.78779 13.0577 6.00019 13.0577H13.8766C14.2908 13.0577 14.6266 12.7219 14.6266 12.3077C14.6266 11.8934 14.2908 11.5577 13.8766 11.5577H6.00019L6.50229 10.4429H13.285L16.4543 4.90751C16.6601 4.54805 16.5355 4.0898 16.1761 3.88399C15.8166 3.67818 15.3584 3.80274 15.1525 4.1622L12.4154 8.94291H6.96634L4.08436 2.75H1.5C1.08579 2.75 0.75 3.08579 0.75 3.5ZM8.25 15.5C8.25 16.3284 7.57843 17 6.75 17C5.92157 17 5.25 16.3284 5.25 15.5C5.25 14.6716 5.92157 14 6.75 14C7.57843 14 8.25 14.6716 8.25 15.5ZM12.75 17C13.5784 17 14.25 16.3284 14.25 15.5C14.25 14.6716 13.5784 14 12.75 14C11.9216 14 11.25 14.6716 11.25 15.5C11.25 16.3284 11.9216 17 12.75 17Z" fill="black"/>
<mask id="mask0_150_1214" style="mask-type:luminance" maskUnits="userSpaceOnUse" x="0" y="2" width="17" height="15">
<path fill-rule="evenodd" clip-rule="evenodd" d="M0.75 3.5C0.75 3.91421 1.08579 4.25 1.5 4.25H3.12794L5.42415 9.18419C5.42295 9.18678 5.42176 9.18938 5.42058 9.19199L4.63252 10.9416C4.2923 11.697 4.62882 12.5851 5.38417 12.9253C5.57782 13.0126 5.78779 13.0577 6.00019 13.0577H13.8766C14.2908 13.0577 14.6266 12.7219 14.6266 12.3077C14.6266 11.8934 14.2908 11.5577 13.8766 11.5577H6.00019L6.50229 10.4429H13.285L16.4543 4.90751C16.6601 4.54805 16.5355 4.0898 16.1761 3.88399C15.8166 3.67818 15.3584 3.80274 15.1525 4.1622L12.4154 8.94291H6.96634L4.08436 2.75H1.5C1.08579 2.75 0.75 3.08579 0.75 3.5ZM8.25 15.5C8.25 16.3284 7.57843 17 6.75 17C5.92157 17 5.25 16.3284 5.25 15.5C5.25 14.6716 5.92157 14 6.75 14C7.57843 14 8.25 14.6716 8.25 15.5ZM12.75 17C13.5784 17 14.25 16.3284 14.25 15.5C14.25 14.6716 13.5784 14 12.75 14C11.9216 14 11.25 14.6716 11.25 15.5C11.25 16.3284 11.9216 17 12.75 17Z" fill="white"/>
</mask>
<g mask="url(#mask0_150_1214)">
<rect y="0.5" width="18" height="18" fill="black"/>
</g>
</g>
</svg>
