<svg width="223" height="36" viewBox="0 0 223 36" fill="none" xmlns="http://www.w3.org/2000/svg">
<path d="M45.9188 32.7052C43.221 34.4212 40.019 35.4152 36.5848 35.4152C33.3007 35.4152 30.229 34.5062 27.6074 32.926C28.7444 33.2128 30.0021 33.3562 31.3806 33.3562C32.9719 33.3562 34.4185 33.1392 35.7205 32.7052C37.0225 32.3074 38.1979 31.6926 39.2467 30.8607C39.6006 30.5679 39.9442 30.2503 40.2775 29.908V32.7052H45.9188Z" fill="#5F72FF"/>
<path fill-rule="evenodd" clip-rule="evenodd" d="M47.8723 31.2625V13.1755C47.8723 11.0417 47.3298 9.17918 46.2448 7.58787C45.196 5.9604 43.7132 4.69459 41.7964 3.79043C39.8796 2.88628 37.6735 2.43421 35.178 2.43421C33.0804 2.43421 31.1455 2.7597 29.3734 3.41069C27.6012 4.06168 26.0823 4.98392 24.8165 6.1774C23.5506 7.37088 22.6284 8.79944 22.0498 10.4631L28.5596 13.5553C29.066 12.2533 29.8616 11.2045 30.9466 10.4088C32.0678 9.61317 33.3516 9.21534 34.7983 9.21534C36.3173 9.21534 37.5107 9.59509 38.3787 10.3546C39.2829 11.1141 39.735 12.0544 39.735 13.1755V13.9669L31.5433 15.2912C29.1926 15.6529 27.2215 16.2677 25.6302 17.1357C24.0751 18.0037 22.9177 19.0887 22.1583 20.3907C21.3988 21.6565 21.019 23.1212 21.019 24.7848C21.019 26.557 21.4349 28.094 22.2668 29.396C23.0986 30.6618 24.2921 31.6383 25.8472 32.3255C26.1664 32.4665 26.4979 32.5931 26.8415 32.7052H19.2584V29.908C18.9251 30.2503 18.5816 30.5679 18.2277 30.8607C17.1789 31.6926 16.0035 32.3074 14.7015 32.7052C13.3995 33.1392 11.9529 33.3562 10.3616 33.3562C8.22778 33.3562 6.38331 33.0126 4.82817 32.3255C3.27303 31.6383 2.07955 30.6618 1.24773 29.396C0.41591 28.094 0 26.557 0 24.7848C0 23.1212 0.379744 21.6565 1.13923 20.3907C1.89872 19.0887 3.05603 18.0037 4.61117 17.1357C6.20248 16.2677 8.17353 15.6529 10.5243 15.2912L18.7159 13.9669V13.1755C18.7159 12.0544 18.2639 11.1141 17.3597 10.3546C16.4917 9.59509 15.2982 9.21534 13.7793 9.21534C12.3326 9.21534 11.0487 9.61317 9.92758 10.4088C8.8426 11.2045 8.04695 12.2533 7.54062 13.5553L1.03073 10.4631C1.60939 8.79944 2.53162 7.37088 3.79744 6.1774C5.06325 4.98392 6.58222 4.06168 8.35436 3.41069C10.1265 2.7597 12.0614 2.43421 14.159 2.43421C16.6545 2.43421 18.8606 2.88628 20.7774 3.79043C22.0203 4.3767 23.0807 5.11503 23.9587 6.00541C27.1316 2.66647 31.6151 0.584808 36.5848 0.584808C46.203 0.584808 54 8.38185 54 18C54 23.3118 51.6219 28.0681 47.8723 31.2625ZM11.989 21.1501L18.7159 19.9489V20.8789C18.7159 22.0724 18.4266 23.1754 17.8479 24.1881C17.3055 25.1646 16.5279 25.9421 15.5152 26.5208C14.5026 27.0995 13.3272 27.3888 11.989 27.3888C10.9764 27.3888 10.1265 27.1356 9.43934 26.6293C8.75219 26.123 8.40861 25.4177 8.40861 24.5136C8.40861 23.5371 8.71602 22.7957 9.33084 22.2894C9.94567 21.7469 10.8317 21.3671 11.989 21.1501Z" fill="#5F72FF"/>
<path d="M39.735 19.9489L33.0081 21.1501C31.8508 21.3671 30.9647 21.7469 30.3499 22.2894C29.735 22.7957 29.4276 23.5371 29.4276 24.5136C29.4276 25.4177 29.7712 26.123 30.4584 26.6293C31.1455 27.1356 31.9954 27.3888 33.0081 27.3888C34.3462 27.3888 35.5216 27.0995 36.5343 26.5208C37.5469 25.9421 38.3245 25.1646 38.867 24.1881C39.4456 23.1754 39.735 22.0724 39.735 20.8789V19.9489Z" fill="#5F72FF"/>
<path d="M58.5804 28L64.6284 10.12H69.5724L75.6204 28H71.5644L70.3644 24.352H63.8124L62.6124 28H58.5804ZM64.8444 21.112H69.3324L66.5964 12.664H67.6044L64.8444 21.112ZM76.1585 28L82.2065 10.12H87.1505L93.1985 28H89.1425L87.9425 24.352H81.3905L80.1905 28H76.1585ZM82.4225 21.112H86.9105L84.1745 12.664H85.1825L82.4225 21.112ZM95.6807 23.008V19.888H106.481V23.008H95.6807ZM116.772 28.288C115.652 28.288 114.596 28.088 113.604 27.688C112.628 27.272 111.78 26.688 111.06 25.936C110.356 25.184 109.828 24.296 109.476 23.272L112.524 21.904C112.972 22.88 113.588 23.648 114.372 24.208C115.172 24.768 116.052 25.048 117.012 25.048C117.524 25.048 117.964 24.968 118.332 24.808C118.7 24.648 118.988 24.432 119.196 24.16C119.404 23.872 119.508 23.536 119.508 23.152C119.508 22.736 119.38 22.384 119.124 22.096C118.868 21.792 118.468 21.552 117.924 21.376L114.42 20.224C112.996 19.76 111.924 19.104 111.204 18.256C110.484 17.392 110.124 16.36 110.124 15.16C110.124 14.104 110.38 13.176 110.892 12.376C111.42 11.576 112.148 10.952 113.076 10.504C114.02 10.056 115.1 9.832 116.316 9.832C117.388 9.832 118.38 10.016 119.292 10.384C120.204 10.752 120.988 11.272 121.644 11.944C122.316 12.616 122.82 13.424 123.156 14.368L120.132 15.736C119.796 14.904 119.292 14.256 118.62 13.792C117.948 13.312 117.18 13.072 116.316 13.072C115.82 13.072 115.38 13.152 114.996 13.312C114.612 13.472 114.316 13.704 114.108 14.008C113.9 14.296 113.796 14.632 113.796 15.016C113.796 15.432 113.932 15.8 114.204 16.12C114.476 16.424 114.884 16.664 115.428 16.84L118.86 17.944C120.3 18.408 121.372 19.056 122.076 19.888C122.796 20.72 123.156 21.736 123.156 22.936C123.156 23.976 122.884 24.904 122.34 25.72C121.796 26.52 121.044 27.152 120.084 27.616C119.14 28.064 118.036 28.288 116.772 28.288ZM125.543 28V9.832H129.143V17.488L128.711 16.912C129.015 16.128 129.503 15.552 130.175 15.184C130.863 14.8 131.663 14.608 132.575 14.608C133.567 14.608 134.431 14.816 135.167 15.232C135.919 15.648 136.503 16.232 136.919 16.984C137.335 17.72 137.543 18.584 137.543 19.576V28H133.943V20.344C133.943 19.832 133.839 19.392 133.631 19.024C133.439 18.656 133.159 18.368 132.791 18.16C132.439 17.952 132.023 17.848 131.543 17.848C131.079 17.848 130.663 17.952 130.295 18.16C129.927 18.368 129.639 18.656 129.431 19.024C129.239 19.392 129.143 19.832 129.143 20.344V28H125.543ZM146.414 28.288C145.118 28.288 143.934 27.992 142.862 27.4C141.806 26.808 140.958 26 140.318 24.976C139.694 23.936 139.382 22.76 139.382 21.448C139.382 20.12 139.694 18.944 140.318 17.92C140.958 16.896 141.806 16.088 142.862 15.496C143.934 14.904 145.118 14.608 146.414 14.608C147.71 14.608 148.886 14.904 149.942 15.496C150.998 16.088 151.838 16.896 152.462 17.92C153.102 18.944 153.422 20.12 153.422 21.448C153.422 22.76 153.102 23.936 152.462 24.976C151.838 26 150.998 26.808 149.942 27.4C148.886 27.992 147.71 28.288 146.414 28.288ZM146.414 25.048C147.07 25.048 147.638 24.896 148.118 24.592C148.614 24.288 148.998 23.864 149.27 23.32C149.558 22.776 149.702 22.152 149.702 21.448C149.702 20.744 149.558 20.128 149.27 19.6C148.998 19.056 148.614 18.632 148.118 18.328C147.638 18.008 147.07 17.848 146.414 17.848C145.758 17.848 145.182 18.008 144.686 18.328C144.19 18.632 143.798 19.056 143.51 19.6C143.238 20.128 143.102 20.744 143.102 21.448C143.102 22.152 143.238 22.776 143.51 23.32C143.798 23.864 144.19 24.288 144.686 24.592C145.182 24.896 145.758 25.048 146.414 25.048ZM155.543 32.8V14.896H158.903V17.392L158.591 16.672C159.023 16.016 159.607 15.512 160.343 15.16C161.095 14.792 161.951 14.608 162.911 14.608C164.159 14.608 165.287 14.912 166.295 15.52C167.303 16.128 168.103 16.952 168.695 17.992C169.287 19.016 169.583 20.168 169.583 21.448C169.583 22.712 169.287 23.864 168.695 24.904C168.119 25.944 167.327 26.768 166.319 27.376C165.311 27.984 164.167 28.288 162.887 28.288C161.991 28.288 161.159 28.128 160.391 27.808C159.639 27.472 159.031 26.984 158.567 26.344L159.143 25.6V32.8H155.543ZM162.455 25.048C163.127 25.048 163.719 24.896 164.231 24.592C164.743 24.288 165.143 23.864 165.431 23.32C165.719 22.776 165.863 22.152 165.863 21.448C165.863 20.744 165.719 20.128 165.431 19.6C165.143 19.056 164.743 18.632 164.231 18.328C163.719 18.008 163.127 17.848 162.455 17.848C161.815 17.848 161.239 18 160.727 18.304C160.231 18.608 159.839 19.032 159.551 19.576C159.279 20.12 159.143 20.744 159.143 21.448C159.143 22.152 159.279 22.776 159.551 23.32C159.839 23.864 160.231 24.288 160.727 24.592C161.239 24.896 161.815 25.048 162.455 25.048ZM171.691 32.8V14.896H175.051V17.392L174.739 16.672C175.171 16.016 175.755 15.512 176.491 15.16C177.243 14.792 178.099 14.608 179.059 14.608C180.307 14.608 181.435 14.912 182.443 15.52C183.451 16.128 184.251 16.952 184.843 17.992C185.435 19.016 185.731 20.168 185.731 21.448C185.731 22.712 185.435 23.864 184.843 24.904C184.267 25.944 183.475 26.768 182.467 27.376C181.459 27.984 180.315 28.288 179.035 28.288C178.139 28.288 177.307 28.128 176.539 27.808C175.787 27.472 175.179 26.984 174.715 26.344L175.291 25.6V32.8H171.691ZM178.603 25.048C179.275 25.048 179.867 24.896 180.379 24.592C180.891 24.288 181.291 23.864 181.579 23.32C181.867 22.776 182.011 22.152 182.011 21.448C182.011 20.744 181.867 20.128 181.579 19.6C181.291 19.056 180.891 18.632 180.379 18.328C179.867 18.008 179.275 17.848 178.603 17.848C177.963 17.848 177.387 18 176.875 18.304C176.379 18.608 175.987 19.032 175.699 19.576C175.427 20.12 175.291 20.744 175.291 21.448C175.291 22.152 175.427 22.776 175.699 23.32C175.987 23.864 176.379 24.288 176.875 24.592C177.387 24.896 177.963 25.048 178.603 25.048ZM187.84 28V14.896H191.44V28H187.84ZM187.84 13.72V10.12H191.44V13.72H187.84ZM194.074 28V14.896H197.434V17.488L197.242 16.912C197.546 16.128 198.034 15.552 198.706 15.184C199.394 14.8 200.194 14.608 201.106 14.608C202.098 14.608 202.962 14.816 203.698 15.232C204.45 15.648 205.034 16.232 205.45 16.984C205.866 17.72 206.074 18.584 206.074 19.576V28H202.474V20.344C202.474 19.832 202.37 19.392 202.162 19.024C201.97 18.656 201.69 18.368 201.322 18.16C200.97 17.952 200.554 17.848 200.074 17.848C199.61 17.848 199.194 17.952 198.826 18.16C198.458 18.368 198.17 18.656 197.962 19.024C197.77 19.392 197.674 19.832 197.674 20.344V28H194.074ZM214.873 33.28C213.865 33.28 212.929 33.112 212.065 32.776C211.201 32.44 210.457 31.968 209.833 31.36C209.225 30.768 208.785 30.064 208.513 29.248L211.849 28.072C212.025 28.68 212.385 29.16 212.929 29.512C213.473 29.864 214.121 30.04 214.873 30.04C215.465 30.04 215.977 29.928 216.409 29.704C216.841 29.496 217.169 29.184 217.393 28.768C217.633 28.352 217.753 27.864 217.753 27.304V24.304L218.449 25.168C218.001 25.904 217.425 26.456 216.721 26.824C216.017 27.176 215.193 27.352 214.249 27.352C213.033 27.352 211.945 27.08 210.985 26.536C210.025 25.976 209.273 25.216 208.729 24.256C208.185 23.28 207.913 22.176 207.913 20.944C207.913 19.712 208.185 18.624 208.729 17.68C209.273 16.72 210.017 15.968 210.961 15.424C211.905 14.88 212.977 14.608 214.177 14.608C215.121 14.608 215.945 14.8 216.649 15.184C217.353 15.552 217.953 16.12 218.449 16.888L217.993 17.752V14.896H221.353V27.304C221.353 28.456 221.073 29.48 220.513 30.376C219.953 31.288 219.185 32 218.209 32.512C217.249 33.024 216.137 33.28 214.873 33.28ZM214.753 24.088C215.361 24.088 215.889 23.96 216.337 23.704C216.785 23.448 217.129 23.088 217.369 22.624C217.625 22.16 217.753 21.616 217.753 20.992C217.753 20.368 217.625 19.824 217.369 19.36C217.113 18.88 216.761 18.512 216.313 18.256C215.865 17.984 215.345 17.848 214.753 17.848C214.145 17.848 213.601 17.984 213.121 18.256C212.657 18.512 212.289 18.88 212.017 19.36C211.761 19.824 211.633 20.368 211.633 20.992C211.633 21.6 211.761 22.136 212.017 22.6C212.289 23.064 212.657 23.432 213.121 23.704C213.601 23.96 214.145 24.088 214.753 24.088Z" fill="#5F72FF"/>
</svg>
