<svg width="54" height="15" viewBox="0 0 54 15" fill="none" xmlns="http://www.w3.org/2000/svg">
<path d="M0.405773 14V0.589999H3.19577V11.57H8.86577V14H0.405773ZM16.612 14.216C15.604 14.216 14.668 14.042 13.804 13.694C12.94 13.346 12.184 12.86 11.536 12.236C10.9 11.6 10.402 10.862 10.042 10.022C9.68196 9.182 9.50196 8.27 9.50196 7.286C9.50196 6.302 9.67596 5.39 10.024 4.55C10.384 3.71 10.882 2.978 11.518 2.354C12.166 1.73 12.922 1.244 13.786 0.895999C14.65 0.547999 15.592 0.373999 16.612 0.373999C17.632 0.373999 18.574 0.547999 19.438 0.895999C20.302 1.244 21.052 1.73 21.688 2.354C22.336 2.978 22.834 3.71 23.182 4.55C23.542 5.39 23.722 6.302 23.722 7.286C23.722 8.27 23.542 9.182 23.182 10.022C22.822 10.862 22.318 11.6 21.67 12.236C21.034 12.86 20.284 13.346 19.42 13.694C18.556 14.042 17.62 14.216 16.612 14.216ZM16.612 11.696C17.224 11.696 17.788 11.588 18.304 11.372C18.832 11.156 19.294 10.856 19.69 10.472C20.086 10.076 20.392 9.608 20.608 9.068C20.824 8.528 20.932 7.934 20.932 7.286C20.932 6.638 20.824 6.05 20.608 5.522C20.392 4.982 20.086 4.514 19.69 4.118C19.294 3.722 18.832 3.422 18.304 3.218C17.788 3.002 17.224 2.894 16.612 2.894C16 2.894 15.43 3.002 14.902 3.218C14.386 3.422 13.93 3.722 13.534 4.118C13.138 4.514 12.832 4.982 12.616 5.522C12.4 6.05 12.292 6.638 12.292 7.286C12.292 7.934 12.4 8.528 12.616 9.068C12.832 9.608 13.138 10.076 13.534 10.472C13.93 10.856 14.386 11.156 14.902 11.372C15.43 11.588 16 11.696 16.612 11.696ZM32.1447 14.216C31.1847 14.216 30.2907 14.042 29.4627 13.694C28.6347 13.346 27.9087 12.86 27.2847 12.236C26.6607 11.612 26.1747 10.88 25.8267 10.04C25.4787 9.2 25.3047 8.282 25.3047 7.286C25.3047 6.29 25.4727 5.372 25.8087 4.532C26.1447 3.68 26.6187 2.948 27.2307 2.336C27.8427 1.712 28.5567 1.232 29.3727 0.895999C30.2007 0.547999 31.1007 0.373999 32.0727 0.373999C33.0447 0.373999 33.9147 0.536 34.6827 0.86C35.4627 1.184 36.1227 1.616 36.6627 2.156C37.2027 2.696 37.5867 3.296 37.8147 3.956L35.3487 5.144C35.1207 4.496 34.7187 3.962 34.1427 3.542C33.5787 3.11 32.8887 2.894 32.0727 2.894C31.2807 2.894 30.5847 3.08 29.9847 3.452C29.3847 3.824 28.9167 4.34 28.5807 5C28.2567 5.648 28.0947 6.41 28.0947 7.286C28.0947 8.162 28.2687 8.93 28.6167 9.59C28.9647 10.25 29.4387 10.766 30.0387 11.138C30.6507 11.51 31.3527 11.696 32.1447 11.696C32.7567 11.696 33.3267 11.582 33.8547 11.354C34.3947 11.114 34.8267 10.772 35.1507 10.328C35.4867 9.884 35.6547 9.35 35.6547 8.726V7.61L36.9327 8.69H32.0727V6.35H38.4447V7.772C38.4447 8.864 38.2647 9.818 37.9047 10.634C37.5447 11.438 37.0587 12.11 36.4467 12.65C35.8467 13.178 35.1687 13.574 34.4127 13.838C33.6687 14.09 32.9127 14.216 32.1447 14.216ZM46.8815 14.216C45.8735 14.216 44.9375 14.042 44.0735 13.694C43.2095 13.346 42.4535 12.86 41.8055 12.236C41.1695 11.6 40.6715 10.862 40.3115 10.022C39.9515 9.182 39.7715 8.27 39.7715 7.286C39.7715 6.302 39.9455 5.39 40.2935 4.55C40.6535 3.71 41.1515 2.978 41.7875 2.354C42.4355 1.73 43.1915 1.244 44.0555 0.895999C44.9195 0.547999 45.8615 0.373999 46.8815 0.373999C47.9015 0.373999 48.8435 0.547999 49.7075 0.895999C50.5715 1.244 51.3215 1.73 51.9575 2.354C52.6055 2.978 53.1035 3.71 53.4515 4.55C53.8115 5.39 53.9915 6.302 53.9915 7.286C53.9915 8.27 53.8115 9.182 53.4515 10.022C53.0915 10.862 52.5875 11.6 51.9395 12.236C51.3035 12.86 50.5535 13.346 49.6895 13.694C48.8255 14.042 47.8895 14.216 46.8815 14.216ZM46.8815 11.696C47.4935 11.696 48.0575 11.588 48.5735 11.372C49.1015 11.156 49.5635 10.856 49.9595 10.472C50.3555 10.076 50.6615 9.608 50.8775 9.068C51.0935 8.528 51.2015 7.934 51.2015 7.286C51.2015 6.638 51.0935 6.05 50.8775 5.522C50.6615 4.982 50.3555 4.514 49.9595 4.118C49.5635 3.722 49.1015 3.422 48.5735 3.218C48.0575 3.002 47.4935 2.894 46.8815 2.894C46.2695 2.894 45.6995 3.002 45.1715 3.218C44.6555 3.422 44.1995 3.722 43.8035 4.118C43.4075 4.514 43.1015 4.982 42.8855 5.522C42.6695 6.05 42.5615 6.638 42.5615 7.286C42.5615 7.934 42.6695 8.528 42.8855 9.068C43.1015 9.608 43.4075 10.076 43.8035 10.472C44.1995 10.856 44.6555 11.156 45.1715 11.372C45.6995 11.588 46.2695 11.696 46.8815 11.696Z" fill="#5F72FF"/>
</svg>
