<svg width="18" height="19" viewBox="0 0 18 19" fill="none" xmlns="http://www.w3.org/2000/svg">
<g opacity="0.7">
<path d="M12.0148 13.7075C10.6585 14.7603 8.95194 15.2567 7.24254 15.0955C5.53314 14.9344 3.94938 14.1279 2.81365 12.8402C1.67793 11.5525 1.0756 9.88044 1.12928 8.1643C1.18296 6.44816 1.88861 4.81697 3.10259 3.60277C4.31679 2.38879 5.94797 1.68314 7.66411 1.62946C9.38026 1.57578 11.0524 2.17811 12.34 3.31384C13.6277 4.44956 14.4342 6.03332 14.5954 7.74272C14.7565 9.45213 14.2601 11.1587 13.2073 12.515L16.6273 15.935C16.7384 16.0382 16.8196 16.1693 16.8624 16.3147C16.9051 16.4601 16.9079 16.6144 16.8703 16.7612C16.8328 16.9081 16.7563 17.0421 16.649 17.1491C16.5417 17.2561 16.4075 17.3322 16.2606 17.3694C16.1139 17.407 15.9598 17.4044 15.8145 17.3618C15.6692 17.3192 15.5381 17.2383 15.4348 17.1275L12.0148 13.7075ZM12.9373 8.37502C12.9473 7.70408 12.8238 7.03784 12.574 6.41507C12.3242 5.7923 11.953 5.22542 11.482 4.74741C11.0111 4.26941 10.4498 3.88982 9.83085 3.63072C9.21187 3.37162 8.54755 3.23819 7.87653 3.23819C7.20551 3.23819 6.54119 3.37162 5.92221 3.63072C5.30323 3.88982 4.74195 4.26941 4.27102 4.74741C3.80008 5.22542 3.4289 5.7923 3.17906 6.41507C2.92922 7.03784 2.80571 7.70408 2.81572 8.37502C2.83553 9.70417 3.37744 10.9722 4.32437 11.9051C5.27131 12.838 6.54724 13.3609 7.87653 13.3609C9.20582 13.3609 10.4818 12.838 11.4287 11.9051C12.3756 10.9722 12.9175 9.70417 12.9373 8.37502Z" fill="black"/>
</g>
</svg>
